<mxfile host="Electron" modified="2024-06-21T00:39:46.851Z" agent="Mozilla/5.0 (Macintosh; Intel Mac OS X 10_15_7) AppleWebKit/537.36 (KHTML, like Gecko) draw.io/24.5.3 Chrome/124.0.6367.207 Electron/30.0.6 Safari/537.36" etag="FqqmcFfldYhTfu5nE9OM" version="24.5.3" type="device" pages="2">
  <diagram name="c4-diagram" id="f05CN5LI-6w874G9OQY1">
    <mxGraphModel dx="9191" dy="1811" grid="1" gridSize="10" guides="1" tooltips="1" connect="1" arrows="1" fold="1" page="1" pageScale="1" pageWidth="6000" pageHeight="2000" background="#ffffff" math="0" shadow="0">
      <root>
        <mxCell id="BfqyUTglAI3pxGKkoa-n-0" />
        <mxCell id="BfqyUTglAI3pxGKkoa-n-1" parent="BfqyUTglAI3pxGKkoa-n-0" />
        <mxCell id="BfqyUTglAI3pxGKkoa-n-2" value="Water Jug LTDA&lt;br&gt;[Enterprise]" style="rounded=0;whiteSpace=wrap;html=1;fillColor=#E6E6E6;dashed=1;container=1;collapsible=0;recursiveResize=0;verticalAlign=top;dashPattern=12 12;opacity=30;enumerate=0;" parent="BfqyUTglAI3pxGKkoa-n-1" vertex="1">
          <mxGeometry x="-5070" y="591" width="1271" height="480" as="geometry" />
        </mxCell>
        <mxCell id="BfqyUTglAI3pxGKkoa-n-6" value="Frontend&lt;br&gt;[Container]" style="rounded=0;whiteSpace=wrap;html=1;fillColor=#FF66FF;dashed=1;container=1;collapsible=0;recursiveResize=0;verticalAlign=top;dashPattern=12 12;comic=0;opacity=30;" parent="BfqyUTglAI3pxGKkoa-n-2" vertex="1">
          <mxGeometry x="21" y="68" width="340" height="220" as="geometry" />
        </mxCell>
        <mxCell id="BfqyUTglAI3pxGKkoa-n-10" value="" style="rounded=1;whiteSpace=wrap;html=1;fillColor=#7dbef2;fontColor=#ffffff;strokeColor=none;arcSize=5;container=1;collapsible=0;recursiveResize=0;" parent="BfqyUTglAI3pxGKkoa-n-6" vertex="1">
          <mxGeometry x="25" y="47" width="290" height="150" as="geometry" />
        </mxCell>
        <mxCell id="BfqyUTglAI3pxGKkoa-n-11" value="&lt;h1 style=&quot;line-height: 30%;&quot;&gt;Card Application Portal&lt;/h1&gt;&lt;p style=&quot;line-height: 30%;&quot;&gt;[NextJs]&lt;/p&gt;&lt;p style=&quot;line-height: 30%;&quot;&gt;&lt;br&gt;&lt;/p&gt;&lt;p style=&quot;line-height: 30%;&quot;&gt;The main interface that the user interacts with&lt;/p&gt;" style="text;html=1;strokeColor=none;fillColor=none;spacing=5;spacingTop=-20;whiteSpace=wrap;overflow=hidden;rounded=0;align=center;fontColor=#FFFFFF;" parent="BfqyUTglAI3pxGKkoa-n-10" vertex="1">
          <mxGeometry y="75.4" width="290" height="74.6" as="geometry" />
        </mxCell>
        <mxCell id="3g_PjQ3nQ4SO2ehC0IPx-4" value="" style="shape=image;verticalLabelPosition=bottom;labelBackgroundColor=default;verticalAlign=top;aspect=fixed;imageAspect=0;image=data:image/png,iVBORw0KGgoAAAANSUhEUgAAAQAAAAEACAYAAABccqhmAAAAAXNSR0IArs4c6QAAAERlWElmTU0AKgAAAAgAAYdpAAQAAAABAAAAGgAAAAAAA6ABAAMAAAABAAEAAKACAAQAAAABAAABAKADAAQAAAABAAABAAAAAABn6hpJAAAZE0lEQVR4Ae1dTahV1xV+aVpepQTz6MA4KPc5KC8OgqZQTAblKbSYDMpLOnl1UF6EFpuRFAohoxcnMaFgGija0KJIizYTjZOkDuLPJEYo0TeoxkH1Ca1GaDVCiZW2pN+n9zb3Xc85d5/9c87eZ38blvfeffdee+1vr7XOWuuc+5yYUBMCQkAICAEhIASEgBAQAkJACAgBISAEckDgoRw2mdEeZ/t73YjXR0FrQI/3+4peHkPn+v4Xt/B6fmQQP98e6vu0P2YZr1eH+vU2UQTkANI6uB7E3dinGbzSgIeNGB8bbeewGp3C6f4rHcYySM4BIKTQ5ADiPaUNEI1Xb74+1adVeE2lnYGgH4LO9l/lFCI8OTmAeA5lK0Qh8Qq/JR6xvElyHZyGHcJpb5zFyBoBOQBr6JwnzoDDMyAa/bPO3NJkcAZiHwe9A1pKcwtpSy0H0Nz5rcZSA4PfjPfrmls6iZWuQEo6gmMgRQdJHJmEHIfAJAbMg46APhcZY3ANWO0HzYHUhEByCGyCxFTgmyAZvhsGnwHDQyCmSmpCIFoEeItuEXQZJKMPgwGxfQnE5xvUhEAUCDDE/wAko28WA0YFs1FogITIDgHm9jtButo3a/RFTvYCzmEHiEVWNSEQFAGGnosg5fbtG/6oM2CtYA9I6QFAUPOLQA/s9oKoZKOKp89xYSJH4Ff3s+Y2g93rFl5cBm7qcOkIXgUpNcjahO02T6VhOGmqbBoXL1ZM1xZBcgQAQa0agUFxj0ojo+4WBgNHwDNWEwIPIDCHHlX1u2X0RU78Gs6ZZ60mBO4hsAH/ngAVKYv6uovLuzjz3j0N0D9ZIsCccC9IRp4vBiwUvgRSWgAQcmpbsVmGgjJ+YUAduACaBal1HAFe9feDZPjCoEgHqBt6kKijTkBXfRl9kdGP9vFugYqEHXICuurL8EeN3OQz60OqDSTuCHTVl/GbGHvZGNYGZhK3gWzFX8TOyw5W/cLGVAd4p2AhWytKcOMM+Y+ATA9Y44SViQ7w7w9Qt9QiRoDhGsM2kwPVGOFUVweoW5si1v+sRWPlVs/wy6jrGnXd8UwJ5rO2tAg3vwiZ6h6kxgszFx3YGaEdZCeS8n0ZsYsRu87dm7rFpfwfg9D4T4KeTP0QJH/SCByF9NtAd1PcRaoOoAewafz633VS1LruyXwGW+J/7zb8X6knscsUHYCMPwnVyk7Ii9gxncDVlHaemgPYAHB55Z9KCWTJmg0Ct7DTLaClVHackgOQ8aeiVXnLmZQT+FIiZ8Vn+pln6cqfyIFlLCZ1lFEqL1jRtxQcwBxQPApaFT2aElAI3EcgGScQewrAK7+MX2aVKgJXIDhrAldj3UDMDoAhFMN+Xflj1R7JZYJA1E4gVgfQA7LnQMr5TVRMY2JHIFonEGMNgH+T7SRIxh+7Wks+UwTWYSB1mhe2qFpsEcBqoEOgnowKJQkjBPwgwKj2aVA0jw3HFAFMApjDIBk/QFDrJALUbep4NO3haCSZmPgdZHk+InkkihAIgcB6MOXF7v0QzOvyjMUB7IHgP6krvMYLgUQR+A7k/hj057blj6EGMAcQ3mkbCK0vBBpG4A7W2wI62/C6K5Zr2wGwKqrbfSuORB8yQuA69sqi4NW29txmEZB5EAsiU21tXusKgZYRWIv1j4JoC620Nh3AbuyY3k9NCOSMAO8MHGgLgLaKgMz732xr01pXCESGwBOQZxm01LRcbdQAZrBJ5v16xr/p09Z6MSNwC8IxGmi0HtB0CsBchzmPjB8gqAmBIQSm8L7xVKDpFOA32OT3hjatt0JACHyBwLr+29NfdIV912QKMIutnAq7HXEXAskj0OjzAU05AIb+/KupAw+X/ClpA0IgIAK0FdYDgv9oqKkawCI2I+MPqDFi3SkE+HuBN5rYURMRwAZs5HwTm9EaQqBjCDyD/RwPuafQDoCh/xkQwxk1ISAE6iFwDsP5sFywVCD0XYCfQ/gf1duzRgsBIdBHYC1e/w4K9oOhkBFAD4KzmKF7/gBBTQhYIsC7Aqyf3bCcXzktZATAB36+Wbm6vhQCQmAcAl/BgK+Djo0baPN9qAhgDsLoN/42J6I5QqAYgY3oXir+yr43hAPQPX/789BMIVCGAAuC3yr70rY/xHMAP4UwzFnUhIAQ8IcA76Tt8MfuPiffEQCv/ldArF6qCQEh4BeB62DHi6u324K+IwBe/WX8fg9d3ITAAAHaFm3MW/MZAejq7+1YxEgIlCLgNQrweRvwFxBZP/UtPTd9IQS8IPAIuHh7OMhXBLAGQjH310M/Xs5YTIRAJQLeooAvVy5j/uVLGNp146eDO2gOifHIHRiZc93kFWOkzAfyOZQu//5kUAt40xyScCN59f8M9HnH6UQgCOc7jts4vQgB6/4MML2GPbLu5tR83AVgVbLrV38nkMdMfhvfHx4zRl8LgVEEBlHAaH+tz64OgB6IIayaGwI/w/Trbiw0O0MEmHrTBq2bqwN4DivnnL9aAz8y8QY+0wmoCYE6CDhHAa4OgB5IzQ8CSgX84JgblwWXDbs4gA1YuMuVVhdcbecyCrhlO1nzskSANkhbtGouDkBXfyvIKycpFaiER1+WIGBdh7N1AGsgCPN/Nf8I8FmD9/yzFccOI/BD7M2qGGjrAHTrL6w2bQd7pQJhMe4S9ylsxuqCbOsArEOOLqEecC9KBQKC21HWVjZp4wBmAaBu/YXXIqUC4THu0gpbsJle3Q3ZOID5uotovDUCTAXuWM/WxNwQeKHuhm0cgFWuUVcwjb+HgFIBKUIdBGqnAXUdgML/OsfhZ+xbYHPSDytx6TgCTM1po8atrgOYM+asgT4RUCrgE81u89paZ3t1HYDC/zro+ht7Faz4lKCaEBiHQC0breMANmHldeNW1/fBEFAqEAzaTjFej90Y3w2o4wAU/revJy9CBN0VaP8cYpfAOAqo4wD4uKFauwhcwvK72hVBqyeAgHEdwNQB8NdGCv/jOPnXIcaZOESRFJEisBlyTZrIZuoAyFAtHgS2QxSlAvGcR2ySrIJAz5gIZeoAat1bNFlYY5wQUCrgBF8Wk41qdqYOYGMWkKW1SaYC59ISWdI2iIC3CIC3FJT/N3hyNZZSKlADrMyG8qnAsbcDTSKAzZkBl9J2lyAsIwE1IVCEwFNFncN9Jg5A+f8wYvG9fw0iKRWI71xikIgP71U2EwewuZKDvmwbgbsQQKlA26cQ5/rOEYDy/zgPdlQqpQKjiOgzEWDxvvJ5gHERwGZyUUsCAaUCSRxTo0LyeYDKO3jjHACfAFRLAwGmAi+mIaqkbBCByjRgnAN4vEFBtZQ7AmfBYrc7G3HoEAKVhUA5gA6ddH8ru/B6sXvb0o4sEbCOAFg80ANAlqi3OG1wV6BFEbR0RAjQhleXyVMVASj8L0Mt/n6lAvGfUZMSTpctVuUASieVMVN/VAgwFbgSlUQSpi0EpssWrnIAigDKUEujX6lAGufUhJTTZYtUOQDdAixDLZ3+0xB1XzriStJACJT+KKjKAUwHEkZsVyKwZ+VH75/414SVCniHNSmG02XSVjkApQBlqPntp4HO+WW5gptSgRVwZPlhumzXZQ6AtwCnyiap3zsCB8CxNEzzsJpSAQ8gJsxiukz2MgfwWNkE9QdBgM72MIiON1RjpHE9FHPxjRoB6lfhswByAPGc29MQZXdAcZQKBAQ3AdbTRTKWOYCvFg1WX3AEeJUOWQ84Dv5MN9TyQ2C6aMtlDqBwcBED9XlHIHQ9QKmA9yNLguGjRVKWOQBFAEVoNdPHfC1kPeA2+G9vZitaJXYEyhyAioDtnlzoeoBSgXbPt43Va0UAa9qQUGuuQCB0PeBlrKa7Aisg7/SHWg5AKUAcusB6wEwgUW6AL52MWsYIlKUA0xljEtPWWQ84CpoMJNTb4Mt6g1r3Eaj1HED34Uhnh+shasgf9DAKUCqQjj7YSlorBbBdRPPCIMCq/UIY1hNKBQIBmwLbshQgBdlzk5FRQKh6gFKB7muTIoDEz3gV5A9ZD2AqcCtxjCR+OQK1HMC/yvnomxYRCFkPUCrQ4sG2tXRZCvBJWwJp3bEIhKwHHMTq742VQANSRKDwol7mAFLcYE4yh6wH0MEoFeieNhVe1OUA0jzokPUApQJp6oSV1HIAVrBFMYn1gFA/7VUqEMURhxdCDiA8xiFX2AbmOwMt8CL43gnEW2ybR+DToiXLHEDh4CIG6msdgd2QYFMAKa6Cp34rEADYlljeLlq3zAEUDi5ioL7WEWA9gM/zrw4gyVvgeTIAX7GMBIEyB7AciXwSwwyBdRgWqh7AuwJKBczOIeZRy0XClTkApQBFaMXd9zzEC1EPUCoQ97mbSldo03IApvClMS5UPYCpwJk0IJCUJQjUcgDLJUzUHTcCIesBSgXiPvtx0i0XDVAEUIRK2n2h6gGXAMuutKHJWvpaEYDuAqStK6HqAa8DFqUCaepGoU2XRQDc4pU09ymp+wiEqgcoFUhPxUptucoBFIYM6e09W4kH9YA1nhFQKuAZ0AbYFf4QiOtWOYCPGxBMS4RFgPWAwwGWYCpwLgBfsQyDQKktVzmApTCyiGvDCGzBeosB1lQqEADUQCwZtRW2KgdwvnCGOlNE4BUIPetZcF4gGAm4thCPMLvK1LX5VhGAHEC31ICpgO96wGvg6ZoK7OsWzFHuxsoB3MBWbkW5HQllg8BaTPJdD7gLnq6pwDbwmLfZkOYYI7BcNrIqBeCcUs9RxlD9USMQoh7gIxV4A6j5jk6iPogGhbuIteioC9s4B6A0oBC2pDtfgfS+6wFMBahoto3RCZ2Amn8EKi/i4xzAJf/yiGMECPiuB/AKw1TApW3DZKUCLggWzz1b3H2/d5wD+LBqsr5LFgFecX3XA6houx0RUSrgCGDB9EobHucAKsOHgsXUlQ4CrAe86lncXeCnVMAzqI7sKtP4cQ6APyA45yiApseLwMsQbc6jeEoFPILpgRVtlzZc2sY5AE48VTpbX3QBgQPYRM/jRpQKeATTkVVl+E/eJg7gtKMQmh43AlMQj/WASY9iMhW44sCPNQrWA9TcEKgsAJK1iQM45SaDZieAwNOQ0bWAN7xNpQLDaLT3vjL/p1gmDoA5xMn29qCVG0LgZ1jHZz2AkeM+R9kZBaxx5JHrdEZgS+M2b+IAyENpwDgku/H9AWyj53ErdCpURNumVMAWOcPanakDOGUvh2YmhMAUZPVZD1Aq0N7hHzNZ2tQBsJp4x4ShxiSPgO96gFKBdlTilMmypg6AnnzsLQWTBTUmCQQYuvusB7wMftcddr4Wc3VXwBzAkxh622S4qQMgr+MmDDWmMwj4rAdQGbc7IrMN8+cdeeQy3bhmV8cB/CEX9LTPewhM4d/3QL6eD+AFhE7FpemugBl675gNM7sNOOB1FW/ODD7oNQsE1mOX+zzulKmFUgGPgBaw4l2XpYL+wq46EQAZHCzkos4uI8DQfcHTBpUKeAKygk1QG12DhT/PlE5UgO7yVQp4foYNzrhscmTufnx22fc1zKculjVX/i6ytT231jnVjQBuAPGTZairv7MIrMLOjoImPe3wZfBRKuAJzCE2Z/D+0tDnsW/rOgAyfHssVw3oIgI+6wG8kLAe4NJ0V+BB9I492OW/J9c0IOcUYDisXfCoUofAa5h33fdlqUCuKUBVWlR4bDYRAL33yUJu6swBgX3YZK08swIURgFKBSoAqvEVbZK2WavZOAAu8FatVTS4SwiswmZ81QOUCvjTjDf9sRrPaRJDGH7VDdlSHq8UYOV5M8z21Y6AkYtujKYCuaUA3D9tsnazjQDuYiVFAbXh7tQEPh+ww9OOXgSfWw681mIunxLMtdEWaZONNhYceH/YxXOnNFcRwINnzfPf5EnrFjzo0nxflpwiAJ4BbdGq2UYAXIz5m/Ezx1bSaVLsCLAecBi02oOgfILtPUc+jAKsjcFx7bam/xEL0xatmosD4IKvW62qSV1CYB02c8DThphWKBWoB2ajxb8i0T5CZ0qhvK2sSgGqz3lnkXJY9PlIBXIpUNP2Wm9zkMDWqFKaJwdQfc4+6wHEOiXdaEtW2l7rLZdbgnIA443yMrRxtQeN7IFHTgVmGwfi5er/kIfDIguGf7/0xCtWNrcg2Ni/s24h/BaLOTFPOQrhfuBBQN5i/LUHPl1l8QI2djCWzeUSBdh46hzn8ILgoykVKI66rB/88XEoZTzosXNUdu35wXP3VQ/oQaeUCjyIry8HW2bL1v253BGQ0T+olKOY+KoH6MKyEusor/4DjzGHN6OKoM/5YuKrcPqB9Or/dkWHGHVTFJCvwRc5+0UP2joDHkoFJia8VP49nEcliw34tkgR1JcvLrOVGmP25UvSqwkfOJqh7TjqiA5LTnBIB5i3+nhGP+dUgDaVTFMUkO/VvizS81EPyDUVYPrDvXtvD3vneJ8hf51Ej//tQPzFNj0E1vVFPu0g+j8w9z+g7zrwSHHqryD0odQEn4TADP3KrgjqzxMb1zyWepVToZk2tBqUZNsKqWXowmBYB6jQrvUAppi53BWYS9Lyh4Rm6DKsAHovPHzUAxYz0CvaTvKN3p5eX4YvDIZ1gAbs0rqeCtwEOK6Rkgu+XucugNvw4eu98KAOMEV0aV1OBWgznWoM+2T4wmBYB3iV6zlq+WIH9epdR0yinM6DzqVwM6zkel/t9D6AXjCct22cewHUFZx9OEVjLEM9B1AkwG10/hP0TNGX6ssWgW9g518DHbdE4L+Y9yfQjy3nxzZtGwQ6G5tQPuU5AmZd8dbah7+zdL3d9WoH9GrRp6HFyms1BLvcgcOS8fszfmLpGvqmngr4uDUaq80/INcMelQP8GtAXXBIrvWATdCrFHHgBZEXxsZbkzWA4c3xme6/gp4b7tT77BFwrQf8DQjSkJ5OCMk7kPX7oL8kJLM3UfeCU4oeWzKHPTeXegBTgZRSzB3erClBRjwshn0yKGEwrAOu9YDZRHRqf4I2613kHjjywIcVQO+Fh2s9IPbo0nV/3g2xTYapeGw5pmYdk8sVMuZUwDXCadNWg629AM4yMGEwqgPUC9s2i4mj/GL4vNV2Q12ftxjpgcWgNLnKwNvFMw6KH1sqQB1Xq0BgD77LVdm17+KzvwCdYEhv03hb8BooBmxdUhqbvSc751AkBxaD0kiG+8brYjwMudvG0UX+ZA3ZVnB6+3cjOLS2lUbrrzTcBVuFwjwaYFt4yvgtDo5O4KMWD60tZdG65YbqUg9oKxWQ8VsY/2AKD+2ynEBrV64YnZFLPaDpVEDGP7Bkh9eenIAcwMhFwMWwmqovucjoYC7dnMpIQOlAeWgc45U6tEwLlqrexB+plfFbHk7VNDoBPj4ZWrHEPw2MWQ/gz39t2jwmhTpnGb/NiRjO0d2BcIobyiBC8r0MveGFwaaFSAVk/DYnUXMOnQCBDqlY4p0Ovkdq6s9guO9UQMY/QLah171YR4YqDKgDOy11zlcqwKdX1VpAYBFrygkIA5d6wLsOOnQTc+lE1FpEYAfWpgLIEeSNgW09gKkADbmu/lzAnBmQWgQIbIIM10B1D1Hju4WZbT1goabucB3b4iOmqoVAgAdyAiSjzhsD23qAaSpgyz+EzotnAQJ75ASydoJMBxkR1m3jUgGmCbN1mWp8OwjMYVkemKKBPDGwrQeUpQJ8AI0OQi0hBFigYaFGTiBPDJin27TRNHIvmPDZE7UEEWBdIMQTX3IqaTiVRQud7WEO0wjSgsV8TYkQga2QSXcJ0jBa38511kIf5zFng8U8TYkYAUYD+0G+FUz84saUjl/5e8SG2bRoigbiNtgQDpV5vVoBAm3956AFojTWxf+E8bcgXhWebGxVLdQmAuv6i59uUwitHR8CigbyigZs6gHxaa0k8ooAawN8eIhV3xDhp3jGg6vqASOmk2MKMALBxF10HAf9HsS04AmQWjcReATb+jfo/W5uT7vygQBv/4w+DKKreDxXcduz4JnO+lAQ8cgDAdYHPgLZKpzmxYEdz1CGn4fNBtnlArjqIaI4jLmOU6XhzwXRCDHNDoFJ7JiO4AKojhJqbPN4XcYZ8Uk+NSEQBIFZcD0CknHHhcEHOJOFICcupkKgAIEe+vaCdPuwPUdA7HkGMyA1IdAKAnyOYCeIoaeigmYwuACsd4CIvZoQiAYB3jnYD7oJkjPwjwGx3QRSEwJRI8CiIQtRh0ByBG4YsN7Cqz0f0lITAskhwDCVCnwCJGcwHgPm9XScCyCF+ABBrTsI9LAV1gt4VVOa8IUzIBYM7+dAjJ7UGkLgoYbW0TLFCDCf3QyaBT0LyqXdwUZPgc72X/UzXQDRRpMDaAP18jXpCLaCngJtKR+W3DdXIPGHIBo6X5dAahEgIAcQwSFUiDCD76ZBdAh8/zgo9j9icg4yfgqisX8MOgW6AVKLEAE5gAgPxUCkDRhDZ0BidZyvbBtBU/fehf3nIth/AvoQdLv/uozXqyC1hBCQA0josGqIykIaowa26T7xfZ1GA+cVfNDO4w2NXU0ICAEhIASEgBAQAkJACAgBISAEhIAQEAJCQAgIASEgBISAEBACQiB6BP4HNJVthUOxClYAAAAASUVORK5CYII=;" vertex="1" parent="BfqyUTglAI3pxGKkoa-n-10">
          <mxGeometry x="113.5" y="3" width="63" height="63" as="geometry" />
        </mxCell>
        <mxCell id="BfqyUTglAI3pxGKkoa-n-89" style="rounded=0;orthogonalLoop=1;jettySize=auto;html=1;entryX=0;entryY=0.5;entryDx=0;entryDy=0;jumpStyle=arc;edgeStyle=orthogonalEdgeStyle;strokeColor=#7A7A7A;exitX=1;exitY=0.75;exitDx=0;exitDy=0;startArrow=classic;startFill=1;" parent="BfqyUTglAI3pxGKkoa-n-2" source="BfqyUTglAI3pxGKkoa-n-11" target="Y0B0YJuFjhIlwioVtb6V-3" edge="1">
          <mxGeometry relative="1" as="geometry">
            <mxPoint x="744" y="199" as="sourcePoint" />
            <mxPoint x="989" y="118" as="targetPoint" />
          </mxGeometry>
        </mxCell>
        <mxCell id="BfqyUTglAI3pxGKkoa-n-34" value="API Service&lt;br&gt;[Container]" style="rounded=0;whiteSpace=wrap;html=1;fillColor=#E5CCFF;dashed=1;container=1;collapsible=0;recursiveResize=0;verticalAlign=top;dashPattern=12 12;comic=0;opacity=30;" parent="BfqyUTglAI3pxGKkoa-n-2" vertex="1">
          <mxGeometry x="386" y="50" width="420" height="335" as="geometry" />
        </mxCell>
        <mxCell id="Y0B0YJuFjhIlwioVtb6V-1" value="" style="group" parent="BfqyUTglAI3pxGKkoa-n-34" vertex="1" connectable="0">
          <mxGeometry x="35" y="70" width="350" height="190" as="geometry" />
        </mxCell>
        <mxCell id="Y0B0YJuFjhIlwioVtb6V-2" value="" style="rounded=1;whiteSpace=wrap;html=1;fillColor=#7dbef2;fontColor=#ffffff;strokeColor=none;arcSize=5;container=0;collapsible=0;recursiveResize=0;" parent="Y0B0YJuFjhIlwioVtb6V-1" vertex="1">
          <mxGeometry width="350" height="190" as="geometry" />
        </mxCell>
        <mxCell id="Y0B0YJuFjhIlwioVtb6V-3" value="&lt;h1 style=&quot;line-height: 30%;&quot;&gt;&lt;font style=&quot;font-size: 18px;&quot;&gt;API Service&lt;/font&gt;&lt;/h1&gt;&lt;p style=&quot;line-height: 30%;&quot;&gt;&lt;span style=&quot;background-color: initial;&quot;&gt;[NestJS]&lt;/span&gt;&lt;br&gt;&lt;/p&gt;&lt;p style=&quot;line-height: 30%;&quot;&gt;&lt;span style=&quot;background-color: initial;&quot;&gt;&lt;br&gt;&lt;/span&gt;&lt;/p&gt;&lt;p style=&quot;line-height: 120%;&quot;&gt;Receives HTTP requests related to solve the Water Jug Riddle&lt;/p&gt;" style="text;html=1;strokeColor=none;fillColor=none;spacing=5;spacingTop=-20;whiteSpace=wrap;overflow=hidden;rounded=0;align=center;fontColor=#FFFFFF;" parent="Y0B0YJuFjhIlwioVtb6V-1" vertex="1">
          <mxGeometry x="5" y="71.4" width="340" height="108.6" as="geometry" />
        </mxCell>
        <mxCell id="3g_PjQ3nQ4SO2ehC0IPx-2" value="" style="shape=image;verticalLabelPosition=bottom;labelBackgroundColor=default;verticalAlign=top;aspect=fixed;imageAspect=0;image=data:image/png,iVBORw0KGgoAAAANSUhEUgAAAQAAAAEACAYAAABccqhmAAAAAXNSR0IArs4c6QAAAERlWElmTU0AKgAAAAgAAYdpAAQAAAABAAAAGgAAAAAAA6ABAAMAAAABAAEAAKACAAQAAAABAAABAKADAAQAAAABAAABAAAAAABn6hpJAAAmh0lEQVR4Ae1dTXAVx7U+c6/4EzgxropB2Vi8jeFtbFaGFSgbzNsYKuHPlSogG5tUpWyywWQDbILZhFCpCngTQVXKEhA/YBPw5gGbAJtAVrI3Qd5Ewq6K7Fj8695539Hci0ZX8z89987PN1XSnenpPn366+nTp7tPnxbhRQSIABEgAkSACBABIkAEiAARIAJEgAgQASJABIgAESACRIAIEAEiQASIABEgAkSACBABIkAEiAARIAJEgAgQASJABIgAESACRIAIEAEiQASIABEgAkSACBABIkAEiAARIAJEgAjkDQErbwyRn2Ih8Eh2v9WQxlLl2pLatyvk/D+KVYJqc9tX7eKz9GkRsGXmzZrUz7TpTMvOxzWR27bIzYYsHv2B/PnL9jv+5g8BagD5q5PCcfRQdv0RTB/wYrwp1q2a2CeWy/krXu8Z1lsEIKx5EYF0CPTLqwdF7DEvKmj8GxF+GULir9OyZ5VXHK8wW361BGne8XrHMHMIUAMwh2WlKelcgC327RAQpiyxtvbL6J2QeLOvv5fdf6tJc9CW2qln0jjzilz8Lko6xomOADWA6FgxZgAC2qibYl8KiKKvVjaleV2FRUg812trwBL74yVSu/9Qdh5RzcD1krcpEaAGkBJAJp9DYFp2vYEP6t5ciN+dPVGTvo3L5NOv/GLocMGS5uTC9/YE1hsOcE5hITJJQqgBJEGNaTwR0CVADAPue76cF2gNNKR5fF5Qx0NNGoc6glqP1gBuZucU/iM/f907DkOjIkABEBUpxouEADSAG5EiSnODXzzt/Zsi7/u9b4Vvrcmzuw/lZ++FxOPrAAQoAALA4atECPiq9VGpofcfwWThsrD4Tpz6GV2G5NxAGFre7ykAvHFhaI8QmJYdH9hiDcXM/sC0fHM9zjJjTPqljU4BUNqq7VXBrEhr/VjaWzDB973s2IQJvsC5Ab9Sqb2BJY27OhHpF4fhCxGgAFiICUNSIIAlu7VRkmOuYJ5loE7o1aR2KYrq709flwwFmgCFgD9G899QAMzHg08pEGhN3vlO7rlJ16U22n7WdJjQu4rnle2wFL8rKQSio0cBEB0rxgxBwJLn26L04Bjjj7RtAP4tO36I9f6rSLcmhHyc1xQCEdGiAIgIFKOFI9CUvr3hsewJmPXObhzSxg8Lv+tIsz48XewYEAL21cfy7muxU1YoAQVAhSo7y6JqQ2tt/AnKZgrmwnvUpj/jxt/iwRpoSuOS5hXEVJXfUQBUufYNlr0pM/uCydljDVm08SW5eLM7jf8FN+sXS/30iyfezEOAAmAeHHxIgcAu/7T28FMs06lzkC43/lmWMBTYgyXGAP78OS/7G0yY8iIC6RDQJby6PP/Cg8oU9gYcXCEXzum7XjR+F0/gpbZuhYw8cIVV/pYaQOU/gfQAoPF7rf1PqcrfbvxqqrtULN0unMWEX5RCrLSlwaFAB1IUAB2A8DEJAvab7lTo9R/bIkNuf4AP5ZvhBCa+brKp72tibXesDVOTKg0BCoDSVGWeCtLY7vYOrPb9Og7PA4ewNjyZBz7ywgMFQF5qosB8YCLJtcxmD6+Qzz5vF8dZh09m39+mYfh3vQokwzQLS44CoLBVlx/Goe6/rNw4qn/9sJszrMOfjmId6E6T9T34OcTtww7KFABZf22Vom8fds+yt5betuYPAmvgkXz9dv746j5HPBik+5j75qjLZItE5k2oaeQVsvq2JX946puw9y8mlYVnImfdrKCnTbS1100jw/sjoD1vR2KGeeWWNAVABlXTnmlGAxjE+HgQWSzB7+wuOajLWDKb9WsXOWf0VgKvN17xpzC59sIJJ2jfRqSn+B2HOj7eraO6kNcDlPWu2223YoCwNV5M5yRsvXonjuqiPCc8G2eDAiAFpDqOnJbJDZbU8deEg0pLe2/PdW40yiwurG3P854zpJlA2OBP/8us4EADvY+x3jge78EW/yvwcs+sVtGEEZA1rzfFbLunxFKe8nIBl73g5U5e+OkFH85X0oucC5qn9mz6cePjeTvnPVwowioYUIYvIERuQkDcSNobtocuauffzhQ+/P8FoTDQfs7nrz2xXC78OJ+8dYcrCoAIOLcbPea5t+X/o45QoIAoGFJch4ZwE8OHa0kFgmpGGLY8CcgmN69wUMlmt+DKDWNdYoQCwAdo/YgfyuT7aAhHEGWlT7RSB0NDeCxSuwwT2isYMlyOOhEZsDcgj3idxiEjv8wjY93giQKgA+W5hm8dKntv31H0wMe2MBB5fs5t6OOVKOI5gV5JexBW7WEABYDrk3NMVtnwXZD43OrxXPKJLfUz7nX/dmT18ed9rFc7Rr5+sWlprXvfQr64y5YbCgDgq5NYulOtY0Y9W+RLQF21AnxAozjn71jbx1+7WNOy8xEmGJe1n/P8i3Lsa+9azDOfWfBWeUtAVVeXiDXGxh//83IauLUf5r7jmPX/k9v/Ht7diE+xNykgxDb1Jufe51ppDcBR+Wu/7301lIqD00+leRgWjW9juXS0CCWDBnAfGsB/FYFX0zxWVgPQs+Yxw8/Gb/qLEjmgGhU0gKUgfdc8efMUweuaqh4rVkkBoI0fM/xHzX9KpOggoCf0WGdhN6FCoBAXPBoPFoJRw0xWTgA4e8HZ+A1/Rz7krHU+L3IX3JDGYO6Y6gJDldoLgJnpveiZqPZ34cMqWhbYzzFYNJ5N8FsZDUBn+wHYaROgkUb5EIAJ9GvlK1V4iSohANS6z5bmMHr/QqxLh1cbY2SAwGAGNHNPshIC4LE8OI5Jv8KMR3P/1ZSQQWgAhZmwNAl/6QWA7uSDkc9Bk6CRFhEoCwKlFgBq4gu1f7gslcVy5A8BtR/Q7yx/nEXjqNQCYBEaPwTAmmhQMBYRiI+ALTOb1fBpWn66JX7q3qcorQDQ9X49Cab3EJODMiMAA6KXMb8Ew6e+a7ofomjaQCkFgLPkl2uPtGVuExUrW231XIGt/YvhHFUdosyF5fuudAJAJTDcPI1wyS/fH17euGtKbTIhT/PsB3TIicNSb7XsThKS7F6yUgkAXe9fIjVt/Bz3d+8bKkVOcGDyZZKCNFunInWkXYlO6HoR5gVKIwC054cjyluoiK0dlcFHIhCKANylw7V5/KvuLQDULTuMzuqX1Pw8PtXupSiFAFBHFJiJ1ca/vnvQMacyIYCt4YkEADSAQT8cVAjg72yehUDhBYBOuDRk5jpmYmnp5/clMjwUgeXyaiIBAMKuSUDfbE7ndThQaAEwLbsP1eTZXY75fT88voiAgJ6FENXluZvctOx6w1H13aEL7x1NoG9E4y9829uQQgoA7fW/l91/Q8V9HKUCegsxc887Atgodj4Zj83NMdLhbAkbcwJ7VsVIk3nUQgkABe+R7Pyd9vowwNiYOTrMoBII1GTxtSQFxR6TTXHSqaZak8aIrlbFSZdl3EI4BNFJPniePYQTavYBdEys8CICZhBoYvJ4uXz6VRJqsDTdHDedep92dqfKr+OmzSJ+1wSAjn+gaq0FaGsxYYdTapvf2rJk0u9ABu3tLXm+DQYaW9D4Z016IUGzwIA0K4yAJY1E6n9rPA+1Pv6lu1Nx3PtNHEl2JX5qsykyFwAP5Wfv4Xy5D8D2Oiy1vOAeLqNx/3z2+GqVwnVpPtGXtogKCJwqiwUWqbtS6FteRMAkAnos2OozySjq+H/ue05AYxid3Dqvk5US0EqcJDMBoGr7DExy0aRDx+o6nodUTFwIJiQCSRDAeQAnksz+a17QZN9BZ5XmWqnzASDwkzRE0qZNJcL8Mlf1qCkztzhR54cQw3uPQPLe3xnOWkNpy6DzAbqUnZZOmvTGBYAzdrevOmp8GtaYlghkhwBMfw8m7f2x/KxDWkNX84j7SDVDRCOTMS4AoPKfZOOPjD8j9gQBe/gluZhw8m/PKqj+u02xrXYsMzKDNtOby6gA0C2QkI57elMU5koEwhHQcwD7ZdWB8JjeMbBq8L5p4zN1XINVgXe8c8w21KgAaEizp+OZbKEi9aIjgMb/GKtPe5Kq/i0DHqxqmb/A28leGAgZEwA69ldJZh4aUiQCxhA40C+jd5JSw3bzzIa3aiX4UCbfT8pb0nTGBIDIjLFxUdLCMB0R8EMARmgf4gjwc37vw8LVvTziJB46hNHX9xACsHbtrpmwMQGg66JRCsk4RKD7CNhHV8jFU0nzVWcz+L51zT7jyxp4KN98mHEm88gbEQAqtWC3t2EeZT4QgRwggLX2j5bLhWNpWIGzmcxU/4V8NY/ocHpheDYhRgTAQ/l6remZ0WyKS6pVQUAn/LDfZPcKGT2RpsyONx9rfxoacdJqO8JKwwdx0qSJa0QAWAFukdIwx7REIBkC9gRm+4eSrvW382wdJ3+2/dzFX+x67c5cgBEBAGmLwxF4EYFcIHD1qdjr0sz2ayl62PiRu84FdGdFwJQAeJKLqicTVUZgCh3RPmyx/Z9X5OJ3aYDobeN3OO/WioARAQCWkx6qkKaemJYItBCwh22pYWtt8mU+JaSz/Xq8Fxrf2RbhHv5YA7A7eDtrBjLbDpw146RPBLCh55Itiw/7OZWJg5CascNWYBjq97o46bKM29p0lKnTEMzfpb9UcuJMtAmuBKTHkhTCEUDDuI4d+YfTjvM1J51seyQPPkLDPxqec/dj1KQ+uCyhy7Io3BoZAuiYC4RuR8mQcYhAUgTUcxSO4367Xy78JG3j14avJ0ij8d/Pa+NXnOBXY19SvKKkMzYEcFwr14eiZMo4RCAqArqeDzV1FO7kPnkphR1/Oz9t+DrDjoZ/CDThei7fly2yFxwey4pLI0MAZU6HAbCYGtMljKyYJd3qIKDje3ycV56JfTntrL6iBlv+XZbUYa7e3Fa0oSoMmjbDpuFmFrVvTAAoc609zZezYJQ0S4/AFBr9DVONXg+PwfkRG0BvEzqlbUBvZXERtIdhzvyLLPg3KgCUQQiBP+In011TWQBBmj1DYEqkcdiW+u0Vcv4fcblQzXORyJtItxobdtaisb+Fe92XUuAGvwCFqX55dSCpH4MF1FwBxgWA0sZa6m9REYdd+fCWCERGAOP++5hUHvdL0JDa0qo5nNXJzxXy2ed+mCQNz0QAKDMtayrsoiqVJE6KM9MRgbQInIaV4y/TEulMb2QZsJOoPqtVllpnYaX1KP4mvOIwjAgQgagI2DqPYfzKTANwc6q+z2G88bE7jPdEgAjEQyCL1YDMNAB30dD4v3A/854IEIH4CNQz8LrVFQHwVJo34heXKYgAEXAjAO9Gm93PJu67IgDUkEPNOE0wTBpEoMIIrNdlT5Pl74oAUIZrMnPOJOOkRQSqiMASqW02We6uCYCnYo2qXbdJ5kmLCFQNAcynwbLR3NU1AdDaMXjGHOukRASqh4DpeYCuCQCtqqbUT1ALqN5HyxIbRcDoPEBXBcAKGXkAKLhPwOj3QGJVQ2CxNHWvg5GrqwJAOVYLQYxj1ESYFxEgAokQWKSbn4xcXRcAyvUyWaUbha4aKQGJEIGKIQDnO7rj0cjVEwGg2xrVfTP2CAwbKQWJEIEKIQD7/WJrAO26cpwc2Mc5MdhGhL9EIBwBeDRaY8ogqCcagLuIEAK/qUvfOixvdOH0VXfOvCcCxUXA1ERgzwWAVoG6PcYhju9iSHC8uFVCzolANxGowftR+suYV+D0rMCHkMhS24MQhgj/gtrzY49XC4J0OAE6v8eLp62Xr+F5cEFEBEDrGPIKZxgRyDsC8Gj8ugkecyUAmlJbjSXCznLBZ1xzRqTeGb7g2ZlLaGxfHtN1kuMjfhIOJK1BFRZNkTewewE+5uyNCzJhABHIBwKDJtjIlQBA09cG6L5w4KMMQdpFWTKcwpHQW3FoxB03gSj3LWeLNxFX/+Zdj+Xd12bkOfiqq/HFGxZcNENXGZgXiQ9EoOsI2IMmsuxobyZIJqcBP4L/1BlOpYDe/D4mB4d0fgCehheoBR25zAqKJF5lO+hEepyWXdAQmpshmLaAT/xayyIlZCQiYBABLKWnbr+pCRgsj7oUbzV0e6wmfVu18WsP3JTGuF8+bkHhFyfrcBw6sQkuqbdgCLOZw4as0Sb9NgImzg3M1RBAVwHgSHTwmTQPvCKffqcFbUjjZX8pZY9BS5gVFG1QevHbOrXlpubtCKyZ93C7j0MFRYRXVgg05KmuBHyVhr5/20pD1WDaafnpFkv6rnmQvAtXY0Mmjo3yoG0kSI+jwrzEXhDbaoQgiRABFwLQfvfp3hpXUOzbXNgBBHNdX935HisF1/Pe+JVnaAbn1eRZVTXHxoHu0Tvrks/JEUDvje8q3ZV7AeBRyKvYTLQ1zz1/Z5XoXIZaPOIPtgyN9yEMJjrj8JkIxEUAbeOHcdN0xs+9AMA4etUc0/YwzkjbnsUZaXN5ZHu3XP7ySb+sWgMhcBQq3ONscyP1MiOAGfOX05Yv9wIA1npftQqJo5Eu/KLIjb9dWc5uyAvHYNwEQSCn2+H8JQJxELAMDAFAI//XtOxZ1fImlH9mE3CoR1nX5flJJOVkYQL8qpvEHkOn+N9pyl8IAZCmgEVK21rxGAHPZTraukhVUDBe7QlnXik527kfAiQvWvFS6vHPzoGq9JZUvNrrBcfpTdKpAfSi3iLkqQeqwtz4CM2MI4BV4SjoMFanGR5TA8jpxwP/CCdgRDSE1YKxnLJItnKAAA4MXZqGDQqANOhlnLZfRu9gyXA9vSVlDHSFyVMA5LzydcmQ3pJyXkkFZo8CoCCVh9ne38Ad9IcFYZdsdgkB9VWRJisKgDTodTntCrl4qinN3bQg7DLwJc6OAqBglasbjLCfYDvYnioY62Q3hwhQAOSwUsJYcuwFBCsEFAJhWPF9MAIUAMH45Patuj+zZWYPhwO5raJCMEYBUIhq8mbS0QTs/d5vGUoEwhGgAAjHKNcxdE6AqwO5rqJcM0cBkOvqicacrg44HoeixWes8iBgy5LJNKWhAEiDXo7SOnYCPF8xR1XSFVYWSfNJmowoANKgl7O0y+VHmA/g3oGcVUuu2aEAyHX1xGNOzYYbsng7Vwbi4Vbl2BQAJav9H8ifv0SRDpSsWCyODwLqcNbnVaRgCoBIMBUrkuMr3h4uFtfkNgECqa1BKQASoF6EJNhGfABDgftF4JU8JkXATrUCoLlSACTFPufpHO/JDQ4Fcl5PadizRCgA0gBY9rSOpSCXBstazziMlgKgrJVrrlzWQdBKPVY0xw8pmUIAR+R9m5YWhwBpEcx5esdhZONwztkke4kQsB8kSuZKRAHgAqOst3ocWVOsW2UtX1XL1RT7i7RlpwBIi2BB0kNd5IRgQeoqKpuW1CgAooJV9XjqPwA9xqWq41Cm8i+XVykAylShWZcFh4wcyzoP0u8WAvaYs9SbLj8OAdLhV6jU1AIKVV2BzDZFUvf+mgEFQCDM5XtJLaAcdYqGSwFQjqrsbimoBXQX7+xys+6YoE0NwASKBaNhSeOTgrFMdjsQwKGgtzuCEj3CnJhXFRF4KLv+jnKvr2LZi19mewIeoH5sohzUAEygWEga1AIKWW1gGhOARnp/LX9fUUHoBt/TsnMvJOReW2StiDWgeeoWW4SNY039ynJZfcbEUkw3ytKZR78MnH0kXx9H+MrOdyaf1TsRJh6XmaRZdVowADIy/lccOQTw+Jr+Iz9/vU+encax3EMer11B9gQ+8BOOV15XcEFuH8rOP+ET2J8du+qf0HoC+hxqGAQZ50Nuhjv4myZIcgjQgaI2/po8uxve+DWhNQBp/HunIXUQKsAjtJhzGbOJMwssI8tVGfNZJPJTphq/FpoCwFX1tvxqSV2ej8RXWa39RRQCzodkT7ggMHpbk76zIPgPo0QrTgwC9ZpJCCgAXGg+kgdH8JhQXbX2T8uOD1zkcnE7Lbs//V52bApg5mzAu8SvdPehOqzEJiRqAIlR9ErY/NwrNGkYBUALuWnZswoqfap989AcDqkWkbQyTKfT4Qwa4J6a1G7osh/+3unMA8MAox9Um74lckXvG7KIAqANioHfZ2JfNkDmBQkKgBYUMI55/wUqiW+sgYcyaYCOPwNxBExNHg+6KKlmc/mR7Py/R7L7rXZ4azxp3GNQXWqjmsdLsnK8nRd/0yEAYX79Fbn4XToq81NTALTwwFLf3vnQJHvCpOCWZCmjpYojYGypv9dJVSc3sXJxG3MWv517Z7ZXAd2rbX/1zjJpdvMMc2Uo/x0OgT1vupQUAED0sbz7GtT3NSbAReOCzUA2l/b+OsyYll1vhOWgcWpibfePZx3GkOCvShPC76Z/vPhvsEx1bn4qa3L+c1WfZgXh3aSlt2WRUfVf+aAAAAgNeb4taaV0M920TIJPNUhqbg7Ltyb2ybA4eL91Wh6MmB1X2hMrZPW8DxXzDOMReCl9FMyLjKIX7xCO0Yqt6r/j3zFa/KixKACAFNTioFnyqFjOxkMlP4mVIEZkTOYd0ujQAgI1AIzzf6eqfhTSqiUslrrOWyTumdz56EfeaR2Jj+xbd5yq3mNl5NwzkbNqHRkXgyzUf+WBAsABwZjaDnV60FlRiFvFwfFbM/g6kQeBJZv9YmNsfwSN/6Dfe+/w5hFTvbR+5N55VD70rm7F1kk81N+1OGiowMhC/VceKAAAgjZaBcPEhd55WU0asz21CXouGkfa9zpf8W/Z8cP2c/vXmdizjrafo/46PFubo8b3i6dr//qR+72vcrhb9Yc6fzMOFqifs1mo/8pD5QWA9tbaAOJUSFhc7YGjTNSF0Wm/d/f+7bAlUtvcvtcy6PIeBgdp7BhWtukl/cW8w4mkacuczlH5+0bnyli7MXcffocO6pPwWMliVF4A1MVamgy64FQYCw/HWbMPpiYvev+5ePbsWr5aH1rSHIs65p9Lb/rOHlsu5694U7VWe4dXIxQN+Jq7B1ctKeo8QNZaVeUFQIaf4HqYFp9OS9+r92/R3Ibtyv/UzUh4Tt17p+UTH7RvLwWVNxMhm5bnbqXHRKvXvMhklPyz1qoqLwAaYmc2aw+VXDcJefTeUape5yZ0jd5vOc9ap3MB0ShlHUs91Kw+k3UuxaRvT/TLqwsm/eDSK4oAuOuvVZlBo/ICQFWzqOpYMsito+jF/5hkOKBWf/lp5P6lB34nOpf+/GNX6w2GgguWRRWBujRDOx7geiprtCovABRgVNJ4xkAfeCwPrqrFYdR8nMnJWmLtIWo+6eOx9w/CcEYWew6NMC8wHpQO+h+0qlWjwXHSv6UAAIamDlkIqg6dpGtKYxxDgj9FEQStpcSej+2DyqTvovT++NjXhtEp43udwPuB/PlLr7Kh0wk0jgJmh7uhVdEnIGoHlaGz19u9Ksp8mLUfgmA/lu2uNzEOxAw+PhDrHgTEWtwvxf1bOmnW+1n9KCUP7/0dewXHn2IUimWKU5OZc37lQQP/zu8dwmE0dME3bUC62K8oAACZ2sIvxp4g0/YAQbWhDRwNHVEgfmb/z93j3WxY3v9F6f2XSn0t4uW9KMb5Q5kfPxMrQIVvTupMgM91zCfceDCHAIBUzTPR+G8YR7fcBDFDHT7zD21nQ7lh8Ctd7XLQ3n2sAnhOAsIk+1LWM/9ujikAWmhAYhvfa+0Gumz32PJ7MMoYFXYKr5et7NHK8zy2Cq9agyX1A9Hom4lFAdDCUYcBWgFmYC03FQxRRqJ6psVE2JvlRsOrdLol+rPPvd4Eh9WOuS0Gg+OaeUsB0MJR1TWAccYMrOWl4gjJ6LsNYclWuRUAYBRhT4T9svsrcUx+RyOkc6dKf08B4MKwKfUT1AJcgHjcYqXiYNReSp2SgkTulzI9ipk4yPl+3Bt/vElhzumFANA0fVLb4x0z21AKABe+zodtH3YF8daFAFYtri+Xv3ziCgq8rcuz3YERSvhStchoAtJa5Sr+gbYPRVdYV24pADpgdma26cSyAxZ9nIKGFKuXwuLfXg86pQ5SLTJaAZ0NUjqf0q01fy++KAA6UNGZbXy41AI6cIGaGln116TqerwI+xg6ipnqUZfwovX+ms3sFmkspf5of6pMUyamAPAA0JHI9rDHq0oGQfU/Gb+Xau6qGlgQeDEMeOxJ2AJsjbKUmiWOFAA+6PbLKqzH6um2lb+u9suFX8dFAVpUpcb/cR13PI2pUcXFP2p8CgAfpFQyN2Tx9mqvCthjT6UZa9yvcE7LT7dAxR3wgbaUwXEddwRZCXYTIAqAALSdnVyNSgoBCL77ON13a5IP1etEogCYe/6qJeSvpmAkc8cdKXgLTEoBEAiPSMuiC8OB6lza+OvSN5RkaUpdmAWfSJQ/HDF2h5ZjDyblDOkL+31QAESodZ0AQ6PYFyFq4aOkafytwh8pEghYhvsI8xXjGLKsS8K3zvz3y+idJGnzkIYCIGItVEEIqKEP9kSsT9LzK4zqoRg/6yNC2vNozhr8KNyZ2YlXLOLN/Pe8yAsYoABYAIl/gAoB7ILb3Roz+kcs4Btd6sNs/0+SjPm1uOrzEI3hUFGKrrP27TX4pCsWjgAp9kEodAji88XqB43DODfg9WqMaWc3tFgimzQ6Phh157RM74t+qTBT+/7+GCa+XmWGz8PjRZn512EOtilv15UeNVjC8xqvMgWFOZ1A7WBQnCK8owDwqSX9OL6XHfDZYr0HST+k0dDwS3bZEzhwdDt6/lRjWG1E0IzgwbgQF0yaF2/FCs8D5RYNeW8SrqE6n+mHR+kkafOUpiB11lvIIAjQ81sfFG12Owg1VfnVbj266ao3Necg1MYtqP+xe1FvitmFOr12Y3t7r75qeY/k6wnkGHPHoj0BQ551SYdL2ZUwPmUKgBiYqTdfW2Y+gEawD8lifjQxMso0qj2M9f1jSSf63KxpA1J3520Nyf0ub/edjV/5g2DfBQ0owG+fdynwDbzdFiLeMYoTyknAGHWljUbNYnHSy4BOBuoSUIzkPY2qvDZk0drlcuEXJhq/FkbH/UVt/Mo/Gn8C9d8eLkvjVwyoASgKKS5HBZ7BykAdvYm9MQWpLJJOYZQLV2fWKdPHduNcwr1Q+89mwbRJml49v9JvDV0wGRj9ZGjQuo/DOnAk2x+emuSxl7QoAAyirz7wF4u1DX3LFoyx3wbpXgwTZhs9ZPuVrLzLOrb+9UtxGo9BmCOT8mv8SmBadh9CHX0cmRgiQuvbHNUXYhy6vYxLAZAh+s7seGMDGsobaJBvIqv1WWSHD/k6evkvQPvzrBp9m2819UXDGily49eyOCcrx5m4tI9j+PSbNg5l+aUA6HJN6ooCQH8TDUh9wr2G+0FlAQ1YBYSPxmBPIJ42cF2KHMfPVxjT3+iTReOmxvNKO+wqitqPckwBpyG/YY9qMJb0XQsr79x7ewzbw9eXSfVvlw3fFS8iEI6Ac8y5dTQ8Zs9jBDZ+5e572fm/UZd0nWGEtdFPmPS8tCkZoABICWAVkuvx5ijngbhl1cbT3aGCPQFNamtQY00w+bct62FVXFxNxqcloEk0S0ZLGwvMhIdRrK1Ri+bMR8hNmNqqir0af5ejpk0Z7y5WYtD4g63zLGm8j/mYZVHygjD5aIWMXokSt6hxqAEUteYy5rs13j+JbHzmJWbNaO9jxeO2SONOTeq33dtiHSu7B3ifvWcgNNQR3dgTNkaPx5M9rDYTGcPcc/LUAHpeBfliwFnKrJ9GTw4nGS+uKTzrEeZf4O8rWxq3n4vcCzKFfSQPPupO429+uEIunnrBacANNndtg/HPQECU2VeqxSyb9QkZFrP476kBFL8OjZVAVf6aNA5hBv07rDJ8AcKTSda9p2UXlj3tWxmP/zHZN7MnjlUe5jL+jjKtDwIM8xb31SdCkHALSl+0dxQARauxnPPb2mBzC2wGNrR0xbDH1GGr47MxGiUVSvjY74XEnoK59MY4dEPo5f419wLkvoqKxaCj+mfZ+OUqduLFbqTo2Y+EIDm7fFilxq94UAMI+Sr4OjoCauSEMfaN6CnixcTYXL0WxT6jQHdxNqUx7p9b+PKhf9piv+EkYLHrLzfcO41sZiQbhrSBNvYvl88+T0Jft3D79XU65k/qATkJL3lLwyFA3mqkgPzouH9Gmmj8WSz52cPqfCPOZJ8bQp3YbIpg7d/rsseq3PgVEWoAXt8Fw2IhAK86J9GTbIyVKDwyXHc1D2AV4nx4VP8YMPzR3t/L8OcuBMvQK/Lpd/6py/+GGkD56zjTEjp7BOKbCYcwBS9DtXVpG79qJshnX2deus6PI8/Q+C9WuvErLtQAOr8OPkdGQK0F0bsejZwgJKKzd6B5cHlKD8XtbB7KJByVdhr+2MNq5NNfIqce7fIm+eUqQBLUmEbULwBgMGbnr376benbb2oZzsPsF8t89sH4x5yXu7KpAZS7fjMpne6nR2NSpyAm6KNhWidektETJoi1abh7fxUufVLb003fCW0+8v5rpAbzXkjyZw4Bw+7ATmOsfyxsB19c7uf3/vZRbOo5FpdGVeJTA6hKTRsopymPQDoJh14Z6ng2x2pp74+5iSdw+rGhX87fMVD00pKgACht1ZotmJnGb4/BoAeTfMkMeqKUqNX7r8ISHzb0jFZ+lj8MMw4BwhDi+0QedDtgwzi/CVU/2rbdjrR8zBABCoAMwS06ae1NH8o3w1DZ3b4BYhVL7fefiH2Ma+6xYOtaZAqArkFdrIzUhBYz/ZcSHnaiDkTOwvPuKc6857veKQDyXT894a7l0EMP/lgThwEIDLgAs089EznLHj8Ocr2LSwHQO+xzmbOemIMzcI7E8eaj6+zwC3gqreluLgEpOVMUACWv4KjFa7kDG4FRzlDUNIg7gs0kp9zOQKOmZbx8IEABkI966CkXrWOyT4OJleGM2GOIcx5HjJ/l+D4crbzHoADIew1lyJ/2+tguexxGM/uDstGxPXr6yzOy+BNTtvpB+fFd9xCgAOge1rnKaVp2fICdcuonz7PXd6z1avDAY1/LymIvV4BUlBkKgIpVvJ5YjB5d1f31c0V3Dh+1RW5CG7jXL69eCztkYy4t74qMAAVAkWsvJu+OOa9sQjIc7mF/iwZ/D2v1X5jejBOTLUYnAkSACBABIkAEiAARIAJEgAgQASJABIgAESACRIAIEAEiQASIABEgAkSACBABIkAEiAARIAJEgAgQASJABIgAESACRIAIEAEiQASIABEgAkSACBABIkAEiAARIAJEgAgQASJABIgAESACRIAIEAFF4P8BcH80e7Nw2uUAAAAASUVORK5CYII=;" vertex="1" parent="Y0B0YJuFjhIlwioVtb6V-1">
          <mxGeometry x="143.5" y="8.399999999999977" width="63" height="63" as="geometry" />
        </mxCell>
        <mxCell id="BfqyUTglAI3pxGKkoa-n-79" style="rounded=0;orthogonalLoop=1;jettySize=auto;html=1;entryX=0;entryY=0.25;entryDx=0;entryDy=0;jumpStyle=arc;edgeStyle=orthogonalEdgeStyle;strokeColor=#7A7A7A;exitX=1;exitY=0.25;exitDx=0;exitDy=0;startArrow=classic;startFill=1;" parent="BfqyUTglAI3pxGKkoa-n-2" source="Y0B0YJuFjhIlwioVtb6V-3" target="3g_PjQ3nQ4SO2ehC0IPx-11" edge="1">
          <mxGeometry relative="1" as="geometry">
            <mxPoint x="2016" y="720.5" as="sourcePoint" />
            <mxPoint x="1860.5" y="-9.5" as="targetPoint" />
          </mxGeometry>
        </mxCell>
        <mxCell id="3g_PjQ3nQ4SO2ehC0IPx-7" value="Redis Service&lt;br&gt;[Container]" style="rounded=0;whiteSpace=wrap;html=1;fillColor=#E5CCFF;dashed=1;container=1;collapsible=0;recursiveResize=0;verticalAlign=top;dashPattern=12 12;comic=0;opacity=30;" vertex="1" parent="BfqyUTglAI3pxGKkoa-n-2">
          <mxGeometry x="821" y="50" width="420" height="270" as="geometry" />
        </mxCell>
        <mxCell id="3g_PjQ3nQ4SO2ehC0IPx-9" value="" style="group" vertex="1" connectable="0" parent="3g_PjQ3nQ4SO2ehC0IPx-7">
          <mxGeometry x="35" y="70" width="350" height="190" as="geometry" />
        </mxCell>
        <mxCell id="3g_PjQ3nQ4SO2ehC0IPx-10" value="" style="rounded=1;whiteSpace=wrap;html=1;fillColor=#7dbef2;fontColor=#ffffff;strokeColor=none;arcSize=5;container=0;collapsible=0;recursiveResize=0;" vertex="1" parent="3g_PjQ3nQ4SO2ehC0IPx-9">
          <mxGeometry width="350" height="190" as="geometry" />
        </mxCell>
        <mxCell id="3g_PjQ3nQ4SO2ehC0IPx-11" value="&lt;h1 style=&quot;line-height: 30%;&quot;&gt;&lt;font style=&quot;font-size: 18px;&quot;&gt;Redis&lt;/font&gt;&lt;/h1&gt;&lt;p style=&quot;line-height: 30%;&quot;&gt;&lt;span style=&quot;background-color: initial;&quot;&gt;[NoSQL Database]&lt;/span&gt;&lt;br&gt;&lt;/p&gt;&lt;p style=&quot;line-height: 30%;&quot;&gt;&lt;span style=&quot;background-color: initial;&quot;&gt;&lt;br&gt;&lt;/span&gt;&lt;/p&gt;&lt;p style=&quot;line-height: 120%;&quot;&gt;Use as a cache to already solved riddles&lt;/p&gt;" style="text;html=1;strokeColor=none;fillColor=none;spacing=5;spacingTop=-20;whiteSpace=wrap;overflow=hidden;rounded=0;align=center;fontColor=#FFFFFF;" vertex="1" parent="3g_PjQ3nQ4SO2ehC0IPx-9">
          <mxGeometry x="5" y="71.4" width="340" height="108.6" as="geometry" />
        </mxCell>
        <mxCell id="3g_PjQ3nQ4SO2ehC0IPx-3" value="" style="shape=image;verticalLabelPosition=bottom;labelBackgroundColor=default;verticalAlign=top;aspect=fixed;imageAspect=0;image=data:image/png,iVBORw0KGgoAAAANSUhEUgAAAQAAAAEACAYAAABccqhmAAAAAXNSR0IArs4c6QAAAERlWElmTU0AKgAAAAgAAYdpAAQAAAABAAAAGgAAAAAAA6ABAAMAAAABAAEAAKACAAQAAAABAAABAKADAAQAAAABAAABAAAAAABn6hpJAAAuyklEQVR4Ae19CZQcxZlmZFV3HX3fanTSAszI2INZMDpgh8Ewi1uyRzBjG3nNGPRmPCt71wj2cC/r3aen2WGYnre7nvbss+X1jiX8mAG8ngHWSD28xcZ4jC4OWT4AG41kdLRafVafVdVdlbn/n90hUqU6siryiMj+o192ZuURGfFFxp+Rf/z/9zNGiRAgBAgBQoAQIAQIAUKAECAECAFCgBAgBAgBQoAQIAQIAUKAECAECAFCgBAgBAgBQoAQIAQIAUKAECAECAFCgBAgBAgBQoAQIAQIAUKAECAECAFCgBAgBAgBQoAQIAQIAUKAECAECAFCgBAgBAgBQoAQIAQIAUKAECAECAFCgBAgBAgBQoAQIAQIAUKAECAECAFCgBAgBAgBQoAQIAQIAUKAECAECAFCgBAgBAgBQoAQIAScQ0BzLivKSXUE3unujsYSIxtSTW2Hr+nvT6teHyp/aQRIAJTGKHBn/NOdNzZGJ8N3s7B+b8hgsazGrgwxrSu3ojozToUN9muDGQlD016Y08PPrj1y5ELuefRbXQRIAKjbdmWVnHd6LZTdyrTQPWVdbDlZM4yXdI09TcLAAorCmyQAFG48O0U/d8tN17Is62Gatt3O+WWdY+jP6Fqob9WhV18u6zo6WRoESABI0xTOFuTMxg/fFjL0nSJve9slMoxjjGm9Kw6/+rTta+hEKRAgASBFMzhXiHMbPnwvYwa+8W9wLld7OaHOgOla31y9vu+qF1+fsHcVneUnAiQA/ETfoXub2vuxkR0sZOzMp8xz6Db2szHYuKZp+5hW1bf84MF37V9IZ3qNAAkArxF38H4n169fFmOZnYYW2sE01uxg1s5lpWtPmnqCw4ePOJcp5eQUAiQAnELSw3wuKvYY2wZD/biHtxa4lXGIGVof6QkEIHThUhIALoDqVpaeKvZcqgTXE6Ra2vaQsZFLIJeRLQmAMsDy61Q/FXuu1Rn1BIa+J8Wq+si4yDWUS2ZMAqAkRP6cIJ1iz00YDGOvURXqW/njo8fdvA3lfTkCJAAux8TXPajYi2rZHTCvDnP4kir2XEIIrQyNULhvxcEjz7l0C8o2BwESADmA+PVzYNOmNYY+twvur5Bizx20UE8AD2Zvsql9H+kJ3MGY50oCgCPh0zoIij3XoAM9ARg19aWN8B7SE7iDMgkAd3Atmaup2NOMnTDU31jy5AInaC1tzBgbKXA0QLsNIwm1eYqFWe+KV177ZYBq5ntVSAB42ASo2Isnhh8wGOtxwmIv/IHrWcufPspmD77CUgcOsOzPg69DA9fkfp2F+lYfOvqCh00X2FuRAPCgad1U7DX8j6+yug0bzFok3/wFm/3Rj1j623s9qJW/tzAM4y2mh3qTra1PkZ6g8rYgAVA5diWv9EKxh6OA9q99nYWqqi6WJzMxwZJHj7LZ//MdV0YFkbt/n8V+6zYWXbuWjT78INNPnbx4b683NGacNwz2DdITVIY8CYDKcCt6ldeKPesoILdgTowKQl1rWbT7Yyz2z26ATn8VC8Vi5m1mXn+dTXzx87m39Of3op5AC0V2kwOS/SYgAWAfq5JnOqHYK3mTPCfkGwXknpadmWHJY2+wmb/7LsseOZR7+LLfVb99B4veciuLffCDLLp69WXHccfwf93N5vv35z3m604iKrENPwkA21DlP9FpxV7+u5Te27LvCRZ73/tKnwhnpE6eZMmDB1nya1+95PzoZ7ez6IfgLX/NNay6tfWSY7k/5gYG2Mgn7s7dLddvICoxdLAwPHr0cbkKJk9pSABU2BZcsadp7F8ZTLuiwmwcu6y6ewtr/y9oR2Q/maOCn/2MhRvqLxna28lh/IknLhMgdq7z4xzUE2SBumyuJruHiEoubQESAJfiUfIXKvYYm+8xdOMB2VxxyxkFlKxokRNQcAzd+0n1bBBAT6CFgKiEVfeSnmChgUNF2pkOWRA4s2HD+nMbbvx7w5j/NWidPy9b58eiTj39pKXE7m2iLkFJAyTgTsC2wzbEtkRlrXsoqZEzjQBKtNO5Teu3MiPbI2KxV+IWjh72YhRw4Y8/58r0oqNA2M5saROVvDd5bBuw4J9oVewxQ++Czq9EpaPbPsOYxR7AjUKnfvWrAHV+RAhMsTW28czGmx5bioSmajzZbjzJefKUTbGXp4iX7cLpuprf3cpi69axqsbGy447vWPi2WfYzF885nS28uS3xAhNSQDAoyezYi9fz8B5/9jWu1kNmACXmq7Ld73oPpwCnPnBD5SZBai4vkuA0HRJCwBU7IVAo+9J8IyKn8KFC9HzL37/Ayx2400sBia4MiRzGvHVV9nM3/5NwD4LctEFPYEW7g0iUcmSFAAqKfbQOCe+cROLXXfdJfb+uY+o379Nk+MXX2Tpp/7G76K4dv8gEpUsGQFgKvZGR7cZYX2XE664rj1lkDEa9cR/5y4WBzPccG2tm7dyPO/50VE2+48/YrP/+5tqThXaQSRAhKaBFwAYFTc2rT0ki8VesecLvezid9zJ4vi2X3S4KXa+zMf0VIolf/ELNv3Et235Hshcl6JlU5zQNLACQDXFXqGHzJzaw4ORCIv+xrqF00A4VC9fbm6HQfPvhfZ/4caV/Td9D17+IUt+c09lGShwlaqEpoETAKZiD6PihoxPK/DcOFpEnBIMd3aaeVZddfXFz4fqRaVhdUeHJyMLfPvPDw1drNs8OB9hygwPseTj+4L7aQB1VE1PEBgBgIo9Tc9CnDztdvNpo3+XIVD7pUdY4933XLa/1A6c9jMyGfO0edhm0MExYYfOnj9vbmcHB1nmh983t+kfmo6pQVSitABQSbEnS6dof/Z5hiMBO0kljz879fHlHMkJTZUUACop9nx56Irc1K7bsLIef1D3FIxWwlqIVYfl8nWTkdBUKQEQFMVekf7pyaHGv/o6q73xxqL3mj58mE3+2weLniPTwSy4+U0kU2x4aobNzs2zCShceyzKVtXXsYZYRKaiMpkITZUQAEtZsefGk4scf+3/668vKgnz3WPoPz2ixDd9cj7DRmdm2fj0DHSshZpkYcWjJYRgZ204zK5srGfLauPgxS3PIy+DnkAeNPI8haTYywOKQ7tqHv73rOmTn8qbG07bjd23Le8xGXZa3/ZpeNvnJqsAsB5DKtOOmhhb29Qo1+eBj0Ql0gkArthjIb0HpPXixLe1Gd3bRiebqg984OINQvX1rBrelpjSP30v6IY+kZCTDPNiye1ttH33WRZZtCewXjG+91tSztnne9tby823CwkAfhxHBS2RahgVNLDmeJTvlmPtMaGpNAIAFXuR2fCOMMzhu82xF16/kUU33cKq2jsYzpGj1Z1dzbj1KUH+/SwsODWWBRPYuTdeU0ow5FMIyqb8K/W2t7YH3y4lAPh5uK6FT4KV9bVsRUMdKA6l6Q4QEtEbQlPfa2wq9ozMTsPQd7hFs8XdZyNdV7LImiuLfvtaH45KttEIZu70aZZ+5x2WfuXH0n9H58YUmP7xP7LJL/27Sqru6DV23/b5blqOAODXIzPOMlAadjU1sHi1PDw5bhOa+iYAzt568/XaPOtxy2LP7PSbN0MwixsL8trzxndzjc4xqTfeYLMHnpfSJj5XIXjh4Z2+lTOj62wylTY1+fm+7e22UyUCgOeNnwf1IACuhBFBR20N3+3/2jDSQGj6LacJTT0XAG4r9tChpg6s3exy5HvZsmkYGUwf2C9d7D6uEES6r7EH7vMSEvNe0+k5Nj6bBE3+rCP3FhEA1gJE4ZNgBcwcrIEZhKqQPDYF8Fn0n1cffu1Ra1kr3fZEAHih2It/bgerveujeZValYLj1nVoJz+9/3mpFG2oEJx54R88KxO+7ROzKTYC03dzMJXnZHJKAPAy4aig1fw8qGeN4JQlQ0pnMt/PtnVuEQ2M6qoA8EKxh0P9xv/4iDQsOeU8HDjdNvHnj0nBpoOORF7Y8jv9ts+Ht9MCwHqPehgJoMJwFSgO/U6JVPpvrzv2U2CCrTy5IgC8UOxhleNfeJA1fuITnni4VQ5x8StRaTjx3e8Gml/Pzbd9PnTdFAD8fqgmvAJsClBpGAVDIz8SWDymr3n9JwuRWissgKMC4NwtN13LMqFdbin2rHXk363WfSpvJyCU9+xX/pvKVbis7F687S+7KezwQgDw+wIPAHwWVLO1YFPQ6rFNgQGfUel61iQS7syx+Y4zm27uYVkdO3+cg+PWGnnyClmxuXVPt/NtuOf3TNda1Tn1vH7bu90upfIH93OWAB3GGyNjLBYCpSH4Hqypq2FhD5SGGtxDr25b8M0uVdACxx1RbWLnB0XJn7s1j59b9nrgwQ9aCkFAj9qPditbLXzbnxmfYG+eu8AGYO20Yk92YHAkEIc2bIApRC86P+KRmp9nokpA4RGAOZ+fhc7vUUIrvnzmqx7d3tXbRCSh+y63kvNZnc2ATf40eOMttVRtmSqMePDWt+J7fnLG+rOibWEBYMxnHtRCHipBwPMrqAnNilVM6He/DLTiuEyAIc84tNEkTPEFNeHbvikaMY2F2uJCOriKIRoEt+cpsJ0QTcICIGMYH/NyZjT78+MMDWqiq1eL1l2669NvvSldmcotUCPMl+My36SzMTTuAWEQlM8BP9/2vB2SMOwfGJ9iM+k03yW0FhYAwH7WJlSCCi6efHwva/0PYEWsOHW2teoo1KbAJiAoyToq8Gs2wAksZXjbYz3QRBqNpqaTznR8jo2wAMhk9VDE43nQ+f79bBRqEBQhgJaB4498KbBsuXUwXMblCjCpdcv6jz/QTq1leNvjNN8EKFcvTEyzNLz53UjCAgD512pgHtTrhEJgBJROTf/mi0orBdH7Dt/8xhjnsPEaSe/uh/b0bTBFhouMowJZ3vZZ3YDPp1k2DEq+TBatGtxLwoZA/2/NGmNdZxvE13RkRrGimtZ+eRerv+MOpT4J8K0/sW8vm3v27yqqc1AucsNuoFxDIBne9tiec9DZR8AhahQWfPvbSd1nzwr1YaGLsYD9K1caTSDRVze7H5u+GCDo1lr7wB+ymk2bXPX3L1YGO8dk9Qi0U3a3z+GjggQoDkHRXnGyIwBkedtjJXE+fxg6fSXekFIIAKwECoHljXXgNunhlCDeOCfxMNq1t/12RSw/Odk58hNZdlJvv82S339xyb/x7QBaCQuQNd9iAkCWtz2W1wnFnjQCACsUDmuspa6WtQKRgteKQbx/buKkINHfvN5zb0GkC0ufOMFSwAqkunlvLq5e/q6EGShXAMj0tueKvaHJaZbKQ2haLrZSCQBr4ZsXlT3xau8VhNZy8G0cGUT+xV0MhUEV2BCgNaGT04jI/DN/9iyb+9UvWfrgK76x6vD6Bm1dzqiACwCZ3vao2EuAYu+Cw4o9aQUAfwBro1HWDhZiDR57SvH7F1ujWXEV6A7CV1xhEoSGmptZGJZiyQD33QzGx4OETMFBYQguVmfZjhUbFSCvZyOMQmtg2tEvKz0rXqjYw7gFI1P2FXvW60ttSy8AeAWiMBJob6gFK7EYOEsI6x55trT2GAE+kuJCE0dT+tQUm/jyI55PZVpHBQgDvmgawTRXBnZfEcVeOU0qKgCE7QDsFhYNGc6OJth50BO0At9+W23Md4Wh3bIvxfP46Ciy7v1Mw/gI8MlU1dp62QyLDnYgo4896nnnxzbBjt5SEzcXWdrICcWel3XxTADwSmWzBhtKTJoLKgzb6uIsJomegJdxKa2RRDXc3m4GQAl3tLNwU3NZhlUzL72kVCwEN9rWacWeG2UslKfnAsBakDGwbcalDvQDbSAMGsCJhJLzCKCNRDXqO2C4Hm5rY9Wr17BwYyOrgkUkzYEuZGrXl0WyUPpatxR7dkGBIKPC7oC+CgBeUXRwwAX1BB2gJ2gCQeCnZSEvl2prJPYMQyeP/sY6xhWaOHRHshGnEw79E//zr5zOVon8uGIPX144ovUrARvRoOi9nX8yBEqEeoIzoCcYAD1BR0M9awbSRb8NiwSq48ql+ZRw4bo6z42ecOjvBYuwKyBWmCkq9kamk+aotcIsHL0M7Bs6RTOUSgDwyqBUPT8+yQbBC6oZlDyo3Y1W+WthyMvm1dquEs6r8ljvY7ouL6Gh//Rcmg3B/L3TrrhWTP3allIAcDBQucL1BPWmIIizukiw9ASiSjiOlVdrc+j/lf/u1e18vU8CvE2dsthzoyIQPftt0XylFgDWyiH9ES4xcD3ugMAMjWDooZqeAKMXVV9zjWNKOCs+Xm1PPf+9QFs5+q3YK6cdwV/w8XLOz3eusA+vE5rIfAUrtA/tp0+PjLO3BkfAgwqUMGBiqUpKfnMPy5w/zzRQyolq4P2oMw79Z/4iOKxFVgxRsXd+coq9PXiBnYPPT7f98K33rnD7kBaL7anw2ouXCX9Y39fYeAfk1nUxR482dPAXnUaaJDCzRIuwqId0zCJVnD98kM1+5ymWgik0DebccVpOhZEMRjAa+9M/Yca5syLVl+5aVOwNwvc9Kp9ngX1HxA3Zw8o9acRi92w+cUKYH0zYJhf4AN6Ait/gYeUL3gpdktvAE9EPhqKChSpxAD0Waz75Kel5DIIWuUhFxR5o/fv1bLZ38+DgyyUeK9uHhQXAgRUr3gRlxDrbd/TgxJoYOIKAYVGTT5TNlVYRYx3WfuQjZVniVXqvcq7DIKZj920r5xJpz0XFHpJrzqbmpC3jZQXT9Wcymrb74+fOHb/smOAOJwTAt0AAbBcshyuXVwFZ6TI0LKrBUE3CVXWljPkyRYOeunu3sdh117lixJPvnoX24dB/+MEvShHBuFAZS+1HPdEE1GMwMaXCt/3F6oB+bS+89Xu7BwZ+eXGnwxvCvaJ/9er7ma7vc7hcjmYnG1GJ3cpxmrP4zTf7pjRUeeif0bMm1ZbfFnt225ufhx3fiER2bzl16l2+z621sAA4cPXVUS2VOgQFlEIPUAoo2YhKSpWXH8fPgzjwHcY8DB+WfPMXbPyPtvMiKLOWzWLPDnA4mwbK4D1zVVW9W0+dumDnGifOERYAWIj9K1euh+Cg/RActDibhhMldigPmYlKilURPw9qf/8TLH799a5+HiCP4cjDDyk19EfF3vDUgr1IMQxlOgYuzfOxaPT/jmez/9rLjs8xcEQAYGbPdXUti8zPPwObG3nmKqxVJSrBz4P4v/wDVnvrra58How/8QRLfu2rKjQhU1GxhzqpDgiU0gKzVshroDPjFHTG3mRT+z7RiL/lNJpjAoDfdP/y5VtDodAu+K3EJwEvN+oJVCUqiX52O6sFvkOnPg9UGPqrqtjDkGkdjQ2gmM7PXKQx4zzYInwjbYT3rD1yxPVPAccFAO9QBzo7bwOLNxQEt/N9qqxVJSpBB6K6+z7L4jh7UGHcRBz6D//xHzL91Ekpm0tVxV4EDNXa6+uAvSgGX8o2ut2Cr/9TLMx6V7zymryzAKWeElM/oOsQyTN0T6lzZTuuKlGJ+XnwyXtZ7e0fKfvzYHTP11n623tlawqWzoBGH0Jio0ZfpYQdv7MJ3vgCZDcGAwMgFupbfejoC07X3YYocuaW/cuXXwsEBj2y2gwUq6XKRCXm58FH7mCx972vWBXNY7PHj7PE5z9X8jwvT5gF348L0PHREUylhKzE7ei0JtDxc+sL5gzvaLr26MqjRx/PPVbpb88EABbw5Pr1y4zs3KPjs8nPjExNxxSxu76ILeoJVCUqwc+D2ns/zWo+9KG8nweyDf1VVOzhg4IdH5V7DbB2K2X1zCvz9aEtV734+oToPTwRAGdvvfl6LaPvhI+f7bzAGBQSBAEbmphSyqMPy4/OO6oSlSCjUM0ffY7V/PPfYtXA8svT6Ff7fI9gxBV7GBXXrXDYvL5Or+vA7LwT3vhe+aHMZ7JDkerYzcsPHnxXpC6uCoDTG2++K8T0nRrTugsVEj35xmeSEAp5is1n7UVELZSXH/tVJiqJbvsMq7nzTqaDffzEFz/vB3zmPVGxNzKTYqMQX8BPjr1KAGiqjZt+J151fGsZJ1LpQ+8/9tNN1n3lbrsiAM7efPP9Wsh849ueCgRLKDa+yMAyN58ptx6+n68yUYlf4Kmq2EO8sOMjMU3MBcJVu+0BFo/6Va/9RMil31EBgB0/FNYfM5h2hd1K5DsvgX7+EDwR/bNVS+iAhBGQWhRzQPISZ1UVe4hRC/BTdoCnaUQSjsq0HuoUsRdwRAC8090djSeGnyk21K/kAZsEATACGuBpGBmollBP0LoYIFWGSMky4KeqYg+n7Zuh0y+DeXw05JEprTj0qlAfdoQTsGZ86EnQjBX8zq8UMNSk4oJvjKGpaTY5q44gQEJTHMXgoiJRSaVtlnudyoo97PjtQE/fBoK8CgS6bAnDkIkmIemBNz+3af1WZujPihbEzvUpCEaBxiDj07N2TpfuHFWJSioBUmXFHrfTx5keGTs+tge+YN4ZHmO3n0QXgsqT8AgApiN2VMP8uBcJFS6rmhthuqUejEOmQRDMqMLhZsKDLDSnYRlQlKjEThtzxR5O8eJDqlLiHZ876MhadhSup8cmGBLkiiZhAWAYWZiGEM6mrHrgd9hKMK/EedcRGA2MgjDAoaYqCRlnkXl2EKY+0e+gFTzCVNcT4GcaErQmFBydcQcd23b6Pj1o+IwnZmfN58ap6VLhngsa/waf8DCHZygEMHLQGDx8qhkVYSMOQ/QjXFQlKpmEmI5D0zBjoxLH3uIDi3b6OJXXDEY8thx0fHrQ3YxFKCwAsuYwT2gqUhhW9KduhzcpMgKPgaJwaGJSOaMi1GvgogJRCQ7tx0EBpaLFHj5sTjjoCD+0NjLwgtlIWAAg2aIfVlD58EMp3goGGrigLcFgYpKpZlQ0k04zXGQkKlFZsYfPixsOOvmeQ9F9XlKWCwuAkalZKb9h0f2yqbOdoS0BfhqoZlSEtvBnIVjFeQmISlRW7GFnrIVnAT3z3HTQEe30eD3aSXgdi1BYAOBw8NcQquua9hYpI9yYtgQdraYtwSDMyatmVIR6giEYyeDiNVGJyoo97FBeO+jgPctN3E7CL8py4fk7iAxkqt/RBHZ1W6P00XuT4GcwDLMGCXBAUjUhUQlOVdVHo47HO8Bh/hQo9EZBqaqiYg/bFO30kX0nDko+WRPiPAw6H1HK8u6zZ4X6sNDFCC4XABxoVYxd5oBhZgjsCMbAsEjlhFaGDTDEFREGvNPj3P00aPVVTTI46JTCzmnFnnQCgAOgSlQedEHGtx26I6tGUMKx5msUBvjWC4PZKvdSi4LxFI+KhMPNNFhT6vCXnFvwuJwCZanKnR7rjg46Mtrp83bBtVuU5dIKAF55VZxikKBkFD4LRkAQqGRUxHFeamu002+DYT7GgJTNQcfaFm47QIkKANc/klBJqIJTDNp8L4M3CTp+qExQYn34grgtu4MOYu63Yq+cdnddAFgLg2aiuMhs7IJGRSgE0JZAZYISK+5B2OZ2+jI76Dil2POyvTwVALxiMhu78DKiUVELeIPhojJBCa+Pqmsc3rfBHL7MDjpOK/a8bCtfBACvoNXYRWanGNOoCDTtaFQ0DLYEMw74YXMMaJ0fARUcdHxnNjKM8fzo2d/rqwDgxVTFKcY0KgKDJxUJSjjWsq+5nX4jEMHI6qDjtmLPbhvpmpawe26h86QQANbCcacYmaPyoO/Dla3NLNWoNkGJFXe/t3nHF4mg42YduGJPJgco4CjqEq2zdAKAVwjnpnGROSqP6gQlHGs/114E0hCpHyr2pKUsD8onQLEGQj3BGXCKGZDAKaZQOfF71UpQEgSjokJ1dWo/2um3wbSrrA463AFK6liEmvYT0faQdgSQWzE/nWJyy1LoN9oSqExQUqheTu6X3UHHd8VeGWDrut5Xxul5TxX3BVixYgC0NUJxAPKWzMZO1BN0AAd/XSRq42zvT8FgJ6oSlDiNluwOOrIo9mzjruvPdA8M/J7t8wucKD4C0LS3IW9fBADXE8galScIBCUFnhvbu5HqDCnbuG+C7Qs9OFFGxV7JasN3P1CtPrJlYOAbJc+1cYKwAIC3XKff0zXIjnoaOAl4VJ7mmhjwBfpLU5aLveoEJbn1KfVbZgcdqRV7hYA1jPOGpvVNR6N7PnXypHBUYH4bYQEAnV+aaB3Itnse2XaRZBMs+PDNE5UkhBMHnBOUTCNTkaJRj3hdctfcTh9ZjmV00OGKPaUoy6Hjw3x/rxaP79l84oTjvtrCAgC+/38IfrS2g4DmPjRu/EYHJNTe4oLRe9HJRxbeQl7fOjB0wSUIBCW848saQUdFZiMY5p8KhUK7u0+ffpw/M26shZWAz69adVfYMP7BjcI5mafsRCUqEpRwBx1Z7fRVpCyHT+q3tHC41+2Oz/uWsADAjPqXL/97FgrdwzOVeS07UYkKBCU4vMeYec3gMYnekzIlhSnLj8G03m5Q7j3nJZ6OtN5zXV3LIvPzz0DBN3pZeJF7yU5UIiNBicwOOkoq9uABhqns+aaa+PdqY7VfEAnzXWlfcEQA8Jv3r1r1ZyCBHwLFYJzvU2Etc/TeLNgS+E1Qwu30ZXTQUVKxB50ir0GUYew1qkJ9K3989LhX/cZRAYCFNkcDmUwP0/UHQEHY7FVFnLiPzEQlaFTkNUFJFJyeljXWMxkddFRU7OEzaoe4VDOMl4xQuG/FwSOufw44LgB4R/zO2rWN9anUQyAEdqomCGSMysNxxbXbBCUy2+mrqNjDNkO7CJwlKccgSmcGxv7uTTa177umv9/xKUAsl2sCADPHdODqq6NGKrUjZBg9IAiuWNirxv8wOCDJTFSCCsNJICcZRw5/sCsQSeiV1wIPKFKMo0+DTAkVeyj0hiZnGDqHqZQcMYiCwZ9m6HtSrKrPaT2B6wLA2lj9q1ffD5rOXU74MVvz9WJb9ui9KAwmILQUCgRMMxCzsRDNOSrua2Mx87z6WIQ1xeNSGu6gYm8cg70iUzNESFIluWkXYejGt+dY+EtOCQJPBcC5DR++lzGjZ3Ju/gYV4/XhAygzUUm+DoL2BTijgCkU0soagubLz4t9GA4b3/ZKWewBMGgX0WpSlde4OorKGvpoqCp8hxPKQtcFwDvd3dHY2MgOFjJ2hpjWZX2AUJGjYrw+rIPMRCVWjFXaVlWx54dBlK4bmbm57EevOnbs+yJt7JoAOLl+/bIYy+w0tNAO0DQUnQ1Q2RwW9QSt9fWsrVY+BySRB8PLa1GxNwx+EcgWrVLidhFN4Hzmh0HUZCp1et2xn60RwcxxAXDulpuuZVnWA4XaBkq/suwBVDSHtYLvdfRe671V21ZZscc7fgt0fD89YfFTqevoG0J9WOhi60P3T3fe2Bib1r4CiGy37q9kWwVz2GL1kp2opFjZ3T6mqmIPceEGUTLZRaT1UKeIQtARATCwadMaZswdMpiz03yovEJFECoMVYzXJytRidudPF/+qir2sC44RYrBSWTq+FguHEWtPPK6UB8WuhgLgUq++PjwMRgKrcPfbiQZzGFF6iUzUYlIvexcq6piD+smO2PxGLwcP3j850J9WJgPIJ4YfsDNzo8NoXq8PhWIShBnJxPaIyCHvmqKPcQgr52+k+A4kBeOqM4nJoRzEhYA8HB/oTosnI2tiqDCReV4fThkk52oxFZDFDhJZcUeVqkBlHodMI8vG3lMLtzTc2mgwJtwxDhKuOfqhvb+3AJ68dvk2FuM1zeiILXWFAzfcJGdqMROW3LFHr7xcbSjWrLjoCNDnfBz6gI86/jcOJWEBYBh6JCHfwScJsceKGkQnKGpaTYJpqMqpdnUHDsNy0A4zJYBxXlTTY1pUaZCHXAYOgLh3kdhwbe/agnt9DvqallEMt7IXBzdpCwXFgAZQ46GVz1eH745zwGh6QAQmraCUw56jkVAKMiYkuCQMwydPgGLiskRBx2XK+4VZbmwABibSUkVmEP1eH34Jh2BEOS4yEZUorJiz00HHSdlgdfMRsICAN8CLWAGK1t0HrTWssbrG4XPA9VsCRBbXPwkKlFdsYd2+m3AX9gK/IWyuTlbBQdnNvI6FqGwAMBKvAtBOa5qb2Wx6mprnaTYDkK8PpxKw8VLohLVFXt+OOhU8sD7bSchZESAFe5fufKio3ZHU4P0TjFBiNeHDkiNcSDvgNiISODhVMK3/VR6nk0Al0AClKkqKvZksdMv1SZOMRt1nz0r1IeFLsZKWgUA/ka2XVmj8mD5rAlZZgYTk2xuPmPdrdS2qDAIQqfHBkM7/XaYw/fbQafYw4NYjy8aSDnFbCSdALACgFF52uvj0ukHrGXE7UkM0wX+BqK0Wrn5ev0bhUE8EjFjJMahQ2CKVlVd/PZF34p0JsOQXGd20fV2Bt74Kr7pObYyOujwsvG1m4o9UQHgiA6AVzR3zY1dZHeKCUq8PqTNwojJmBK5jRGw32in3w4OOo0OfgI5DRFX7MnMbOSqAOCA5kbvbZHU2CVI8fo49kFby+6gg3j7rdgrp809EQC8QFanGJmNXXD4vLqliXXC9NEQBhkF80tK/iKggoOOU4o9L5H2VADwiuE3p6zGLryMuEYTUbQlWAbKpVGg3h4GdtpCTLvW62jbOQTQTr8NzHVlddBxQ7HnHHqlc/JFAFiLxY1dZHaKwamlTvjeRPPc0ZkkCC81CUqsuMu+LbuDDreT8JWy3DDOi7aj7wKAV0AFpxg0Klq2GOHF73h9HLegrWW301eZ2SjfsyKNAOCF404xg/CWlTUqj+oEJRxrWdZop98Mw3z81MLRloxJSsWeA5G2pBMAvPFxSmsYPONwkTUqj+oEJRxrv9YqOOhITVkepE+AYg/hODjE4OKnU0yx8uExK0HJMHjyzSyG6Cp13VI8zu300WJURgcdVOwpEYtQ034o+vxIOwLIVzE/nGLylaPYPtOoqL1FWYKSYnUTPcY7fkstkJ7g61+yJIVizyYm4NOSBO6lXpunFzxNuBUOrFjxptukoIVKr0JUnhSY3mLUGxzBLNUku4OOaoo97PwwH71988DA06LPlLAAAGegH0AhbhctiOj1skflwWAnF4CTYBwMi5aKLQHa6XfA9Glz3N8IOoWeLSkVe4UK+97+lzKG8fDHz507/t6uyreEBcD+lStPyhTuW/boveiQgzx6QTYqkt1BR0lmI11/Rg+FerecPXuk8u5++ZXCOgDo/L+GbLsuz9qfPegMg4us0XuDQFBSqGVlttNXRrF3ObhPwhu/9+MDA4688XOzFxYATNdfhsDzvn8C5FYM/a3PjCaAbVeDYWg9cBTIFb0XlWDtMPfdBgqxMSDfGJqYZPiZoGKqBY889MxDBahsiSv2VKMsh+/8vUYksnvLqVPvuomp8CfA91asuB64aw+BIjDuZkFF81aBqEQ1ghKZHXRUpCxH5R6MqPdlI5Fetzs+70/CAgAz6l+16s9As/UIz1T2texEJbITlKCdPrLvcNIRmdpbRcpy7PjwgtozV1XVu/XUqQte4umIADhw9dVRLZ3epZIQQJBlJyqZRqYiiaIeyeygo6RizzDGoc/0TcVif/mpkyfFA/1VIDkcEQD8vs+vWnVX2DAeg9838H0qrHn0XlmJSpLAWTgMU4gJ8ET0I8nqoKOsYg9NeA3jG352fP4cOSoAeKb7ly/fGgqFdsLv2/k+FdaoJ5CZqGQuk/WMoAQN9dpgmI+++LI56Kiq2INOf17XtF4tFtuz+cSJBe42nzuGKwKA1+lAZ+dtoXC4x9C0br5PlbVsUXmsuOFsARKUJCBIpNOMxtFINQR6iZvMzrLZ6auo2MN2g7mdU/BC3A1a/adk6fj8eXJVAPCb4ExBlab1wO9P832qrGUmKkEM8fMABUECBEKl04houNMEjjkYel3GQJmo2EPjKdXMqUG595YWDvd2nz79uKzPuycCgFd+f1fXGm1ubhf83ib7tCEvM1+jnkD26L04e4D2DxgCDc1cMSWB/puHRENnnHg0ymAFnpULc/a1QCMuK90WKvZGwHSaMx3ztlBgfUzX9d1bBgaek72sngoADsZzXV3LIplMDxgRPcA0rZnvV2GNDkiyEpWogF+pMqJibwIE2QXggXAqeEapezp4/CXo+H0qdHxeZ18EAL/5d9aubaxPpR4CIbBTNUGAdZCVqITjq9IaRyljs+gjMcOQFUqx9JKRyezePDj4smLlZr4KAA4W2hEYqdSOkGH0gCC4gu9XZS0zUYnsGKqq2DNxBQedjKbtdsozz4+2kkIAWCvev3r1/TCM2iWTh6G1fMW2vYzeW6wcKhxTVbG3iO2Cg45DLrl+tpd0AoCDsWhLgApDpYyKsPwqEJVwnL1eK6zYg2l8bxx0vGwTaQUABwFtCbSqKhQEt/N9Kq1lJyrxAkuVFXvcTl+vqurzykHHizbh95BeAPCCAvHI+pCu94Dr8T18n0pr2YlK3MBSacUe2umHQvv8cNBxoy0K5amMAOAV6F++/FqwLOwBO4LtfJ9Ka1mJSpzEEBV7aKk4MjWrXuhxCRx0nGyLUnkpJwB4hdCoKJTJ7ITh5Q7VjIqwDqgnkJGohONbyToFRkjDClrsmXUFO314sfRNRyJ7/PLMqwRz0WuUFQC84qZRUTq9Q1VbAhWISjjWhdYqK/ZkdNAphLMb+5UXABwUNCqqm5vboRkGGhUpZ0uA9ZCdqIRjjWuu2BuCICipRbNj63HZt7mDjsx2+l5gGBgBwMEyjYqSSTQx7lHRlgDrITNRCSr2EmCxd0FNiz2cypPeQYc/y16sAycArKChURH4GyAvgXK2BFgPmYhKlFbsLTwUyjjoLBTXm/+BFgAcQlUJSnj5/SQqUVqxtwDgS1kg4fjYmTMvcDxp/R4CS0IA8OqqTFDC6+AVUYnSij0AC3RB/Xo226uigw5vay/WS0oAcEBVJijhdUB7goaaqBl2KwbbTiTkEEgkUyb3oIIeeQsQBMBBx4m2tJvHkhQAHByVCUp4HXAtIgwC0ekBA7TTByfiPpU986xt6tX2khYAHGROUKKqURGvB1+jkVEcmH4wxYHjj3P7YVzCJLzlDZgDw1DrQUhBdNDxsl1IAFjQVp2gxFKVQG9yB52g2+l70YgkAPKgrDpBSZ4qBWPXEnHQ8bKxSACUQFtlgpISVVPn8BJz0PGyYUgA2ERbZYISm1WU77TFQBozkci+peSg42VDkAAoE+3F8GcY4+D2Mi+l020igHb6cGqfTBF0bBZdudNIAFTYZKoTlFRYbVcvIwcdV+HNmzkJgLyw2N+pOkGJ/Zq6euYxYN/pW+qeea4iXCBzEgAFgCl3t+oEJeXW16HzyUHHISArzYYEQKXIFbhu0ahoJ3ghIkmJUlGPClTJjd3KBtJwAww/8yQB4BL6QSAocRoactBxGlHx/EgAiGNYNIcgEJQUraCdg+SgYwclX84hAeAh7KoTlJQLFdrpw1u/t3tg4JflXkvne4MACQBvcL7kLotGRWhLsPGSAwH4gXb6UI2njEhkdxADaQSgiS6pAgmAS+Dw9kcQCEo4YuSgw5FQa00CQIL2UpqgZMFBZw945vVtPXXqggRwUhHKQIAEQBlguX2qUgQl5KDj9uPgSf4kADyBubybSE1QsuigQ3b65bWprGeTAJC1ZaBcMhGUkIOOxA+KQNFIAAiA59WlfhKUkIOOV63sz31IAPiDe8V39ZCg5BhwJPZuHhh4uuLC0oXSI0ACQPomyl9AtCWAqMhboQHvdsznAL7vIb9ngU//aeLTz4970PaSAAhAi4oIg4uGO4bx3JaBgecCAAdVoQwESACUAZbsp6KugE1PbzDLWVW1QdP1GPjZXwu/O819up6A9XEjFEqxTOawua+u7vDmEyeCwRFuVoj+EQKEACFACBAChAAhQAgQAoQAIUAIEAKEACFACBAChAAhQAgQAoQAIUAIEAKEACFACBAChAAhQAgQAoQAIUAIEAKEACFACBAChAAhQAgQAoQAIUAIEAKEACFACBAChAAhQAgQAoQAIUAIEAKEACFACBAChAAhQAgQAoQAIUAIEAKEACFACBAChAAhQAgQAoQAISAxAv8fA6+QwT2dIZAAAAAASUVORK5CYII=;" vertex="1" parent="3g_PjQ3nQ4SO2ehC0IPx-9">
          <mxGeometry x="143.5" y="8.399999999999977" width="63" height="63" as="geometry" />
        </mxCell>
        <mxCell id="3g_PjQ3nQ4SO2ehC0IPx-5" value="" style="shape=image;verticalLabelPosition=bottom;labelBackgroundColor=default;verticalAlign=top;aspect=fixed;imageAspect=0;image=data:image/png,iVBORw0KGgoAAAANSUhEUgAAAQAAAAEACAYAAABccqhmAAAAAXNSR0IArs4c6QAAAERlWElmTU0AKgAAAAgAAYdpAAQAAAABAAAAGgAAAAAAA6ABAAMAAAABAAEAAKACAAQAAAABAAABAKADAAQAAAABAAABAAAAAABn6hpJAAAz5klEQVR4Ae19XYwdx5VeVd17Zzg04BWNYC36YU35YS35YSU6wIrahxUpjkRKD5HGD0vKASLJAULRgEFRP3NFJwjFxcLyUD+UYsASF4gpLhBTWiAmFSAiZc6I5D5EVB40VB5WdoBYlB8ieZFIsoFwOD+3Kt+pOz1z/7pvdXdV/91qgJzb1fVz6quu06dOnXOKMX95BDwCHgGPgEfAI+AR8Ah4BDwCHgGPgEfAI+AR8Ah4BDwCHgGPgEfAI+AR8Ah4BDwCHgGPgEfAI+AR8Ah4BDwCHgGPgEfAI+AR8Ah4BDwCHgGPgEfAI+AR8Ah4BDwCHgGPgEfAI+AR8Ah4BDwCHgGPgEfAI1A0BHjRCPL0OETgwOxXRYM9IAW/HQO/pbMlxdglJlfOsed3vdeZ7n9XGwHPAKo9vu3ePfXLO5moHRCMTQ3trlIfMcGPSyVfZTN3/35ofp+h1Ah4BlDq4Ysmvvbk+fulEAc4Zzuicw56qj6Xir/MuHzJM4JB+FQjzTOAaoxjVy9o4quaOIzErV0PEt2AETD+GruuZtjLk79LVIUvVFgEPAMo7NAkIGx69iGI+U3G+S0JSkcXUWpBcv6qZwTRMJXtqWcAZRuxQfS2J/5hTPybBj22mkaMgPHXWYsdYS/s/Nhq3b6yzBHwDCBzyC01+IO3xsWGsUcZZwcymfgDyJaKnfCMYAAwJUryDKBEg6VJDSa+gKjP+OYikC8ZO82Wl4+wF3d/UAR6PA3mCHgGYI5Vvjmb5/+IKfGY4GpfUSZ+LyCeEfQiUvx7zwCKPkbrE/8AJv6mopNL9CnFLijVOsKeu+dSGegdZRo9Ayjq6MNqj23gTaEU1vl8oqhkRtGlGUFLzrAX7n47Kp9/lh8CngHkh/3glisw8Qd0bJ635JHW83e/OeCZT8oRAc8AcgS/q+kn5r7Oauyw4OyRrvRq3cxLCYOi5ybfqFa3ytsbzwDyHrt/98432ZJqVnzid6MMfwMoDI+wo5Mnux/4u6wR8Awga8SD9h4/dytrNA4bOegEZar2lxyPJJuRi0uvsZ/ct1i17pWhP54BZD1KT759O6vVmyM98fswV59oRnB96VXPCPrAcZrgGYBTeDsqh0su57XDyTzzOuqp9E/1CTwQj3sPxOwG2TMA11g/cX4Xr4mmn/hxgPauyHHQSpPXM4A06EWUteuSG9FQpR95V2TXw+sZgG2EyTOPc1jt2fDFt01cSevzrsjOBs4zAFvQZumSa4vmEtbjPRDtDppnAGnwJM+88bGHGXnmZeGLn4bWipX1jMDOgHoGkATHArrkJulGFcp4D8R0o+gZQBz84JknuHgU7m7kmVcIX/w45Fc5r2YErZUZH9Y83ih7BmCCVwldck26VcU83hU53qh6BhCFV+CZx9TDZfHFj+rOKD3zrshmo+0ZwCCcgolfYl/8Qd0a0TTvihwx8J4BdIITuOQytbesQTg6uzP4N8xtJTvIltjFtTj/7ZODyD/h3sFlKpE6L5V62Xsgdo+lZwCERzDxq+2LT6G63lWLampt4ne/C0w8NXsAx4K91JNcrVvvitw1nqPNAMglt94gX/wHu1Cp4g1Z07VwYMiwWP7NubcqLgm0R9e7ImscRpMBjKAvPrbJjrGZnY8P5W0IUCKW1a+G5qtMhtF2RR4tBjDCLrmIyfeAaUw+0Zz9bPR2PUbTFRnS3ghcNPGn594RonZxVN1yW7J11XykeYy85rUWOyffjKXgM4Lxj9j03GFGth8jcFWaAZBLrmjOvT/KEz94h2uitiX4PfyvipF3eG3lysE3rTGC5tyLjLaEK3xVcgngffH731hsgT2LLbAf9j/pSYF+RDQaV3pSR/e24q7I1ZIAyCV3evY3qibO4I3dOrpvbX/PMdAP9Kf2p4hafXt/6gin4FAWYHdQbOCfYmnwM71lXCE4yi8BwDOPTYztxSBlczx2iQdfNvjN7G/u+nVUF0hXMqp6kihcOp9VyRW5vAzAu+R2vpNmvzl7Wv5450xoZvJ2VPyT6lpBhvY80YMquCKXbwlALyks1sTGsY/aVmveLdf07VWS3R+ZV/LdfvJHItT1EJNnSutLmnO/YBTuvYRXvTQ0a1F//GnB4IsvynFKbtGw5UzdpqKI4uzWqMf+2WAEiBHgrIcpNT13QcmVQ2WKSVAOCQChtemLT9szo2egMvilS5RKpwyT30PYxaEj8FdiBEh3AiXqZdac+2lZ7AiKzwAApqiLcz4CT+L3sqegDJ3kOIo89FlPJf42AgFMqv3QpcxHMtuI8lk+KjYDwLYLgZklIFVvS4iIrzyHs5C/7CCAILGipi4UnQkUlwHAHBMi/yN2RsPXEiAgOb8h+N31N2pp0JXR3xgjEDAB0l8V9ComAyBrNKaaBcXMk+URMEeAwsVvHD9mXiDbnIVkANhaOeG3o7J9EXxr7hDQy1iKulTAq3gMoL2f6s14C/iyeJJSIMBr+1KUdla0eAxA1KKNVZxB4Sv2CLhDAEvaB1gBdQGFYwAgaK+7YfA1IzDg4Gg/OlSY+twj5AgB2GDUxhu7HdWeuNpiMQDSRPsz9hIP5tCCcG3V0YBDMkrFyYvSX44QaNVE4fQAxWIAQm1zhL2vlhBQ7FBYRGAN0KI6hExeCnD0tnDFCvd+F4wB8FI6VDh6XyxXi5h315dejaz05cnfMcmORObxDxMjQL4YRdMDFIoBgJjtidH1BaMRkGyG/eS+xehMjLWZBCLl+ss+AuSLsaFeKCmgOAygrSH123/2XztI9TgTYNjXP2gXTEIy/npw6//aRUAwcZvdGtPVVhwGUDDOmA7WgpXm/FcmX/+AatFSkVGDgnz+b3wEpOCFUgQWJh6AqNW2QUnlL1sIKPWhYvxTxdkVSAAfxKkWuwHnMBbPMM5uh+LqBri53hGnvM8bjgDsAbYjklBhruKEBENUFYgjU9khoz5Riv8KipktFdh6nMdLdZlJdYlJfnno8V9JQKbw2HUosWpiG16aO4HbNm+unQRI6FlW2BYnY5SAnOJIAOCM8PlP0IXYRealbB1kz91ziUpqoYPsD+rsWLYMKDbdHQX0KTbnalK+2arhlN+Zu3/f8dDNT9ohYOxt+keYadxgti04JDfBH0JSqfQ3OCj1Avqg3wG8dl9FLAQKh3YT+uH+qtG7zk66b2h4C3x4lgxyZHQeHaK5nmILi4+ErYcLfTounWrLIZrL1hsB88pgZMybABMVXO1Wgu8pdFRhwrGl9rMX7iZm1nVlNf6Q1l7BOY3f72o8p5tiMACK58/5a24xwFfz2tJNYZN/re3puZ8jDsGDa/c5/8DLchai/Un23OQbOZNi3jxJVDW1Dzg+Cqluk3lBxzlpN0S2dkTG7KPwczoClVNa5uXMzm87bcGw8oLsAmSgGTXcB9cSAh0dneulPqevhI7jP7PzvlJNfsKN/ApwChEY7macSPQwlJAf5gpn0DhZQj6/673gduBfSAbA/vTAZ/YStxYlZmAhGAC+FM73RiWTV4zGj/bBlXzEKK+DTHriX2e3aBFxyCEeDpq3WyUZHh2dPCmPTn6LTidG5fN2GzCvjdb88rnJl41KrMjjRvnSZFophllw/gygfQqrewXSeP1T4/GCgpAmonF+Cxn1C7q8fJue+G2Fm4Vai1MFHU1OYu+qRJCthAXRX7VihJebqF11jhx2U5y3YdBA7gyg1mLbDehMn2WhtSVWJdcWDyK/+y8Wlhv0dVRHd97FXtz9QSway5iZJIKFpVug13gMewnZOB5JdrAo227BkEH5dmfwO8+/uTOAlsjINLIm9sQCWpvEyh1Yvzr6WuHlp6O6MBno6xiLtrJnJmwhjkssdSBpnXXZHdr5kc9PxhPpl6Tzr7O2o3DZccO6c2cAWXFCWGDtjX18E/bXZYtbZwLBOl+f00fr5FG9aKkDJadeFjD7DkiaudC2b9yL8/vjFomdnxyDEPw2djnLBTD/8r1wnPe17CzKsBXYEDuGnZDbhwjtcVOM97SGIrQNpbAWdbmlh+CT5HACm4HbwfS2cakOJpUwRHPufegmvlBMXa5J9V5rGVaGrvQTWhckTuGLdG8f/skS5uW1xTuGbvv21J2VLYBuFssgY8VkD522bvNlABT+u9Ew087b6jHqwSQ8wcb4TCxGAFNYnBFP4moyhSUZoKysTFlf51MQ1Vp9DwWbGGSzL0mxmFS3MNA8G0yU8csCZsdyib1unSHQSVApD4MhhariciqWhSS8UcWGsUexLHs2qw8SLU/Y0Z3ftfhqx64qVwaQKbcdAI0WEeMY2ST8SuGFfFctqilrk4UkkgZiJ0q1b5hUgu3PG2JNhE6cmnMvYjKSMjT0io1haE3rD8STs/tYjUcHL1nP3vVLT6oIa8+uzHRDjH2Ck63CARgtbe577jKBPgpHJ7/hsolhdefKAFhRrO5I0QdDISNlEX0pvjT+GCbfYZMvhZY2Fhb3xxVF+waO4iVMjO1Fm3swKc3EZFpyHJ3c2FeXYYJ4eq4Jo/8fm2Un/wT2GhsTJ2NJVmGVa4s8fiqOJSGY0THoFB4Pq7IrHfXDsQkWqPlafebtGJQrA8D6/zfDvmBdg+b+Zl62VvYPtRYjOvDlqDXUttVdjG/CDn573xfExhovYDiKTkqKaVab9guT0ERbi+A2jskmH5EledbgHely8Ip8TVAnX1KvFMVfgbaAk+poIvtp+DA/BkBibJ1dNaQz02z6q83lwdiiM3QavN44xrm6Ta6oBwc5nMTqiJ6AWJMmFE31RCT7gqQXKRRF7WLS4sDxFGvB/FaHHE9YC5ZdXInT6xOWJA1+UesguPwVu75y2Ui6aktQhyE9PWYiuSWkNnaxWFJL7NqHF8iNAdSePH+/qokzw0nMKQd9PWXrQSNpoJdE8p1Poy1vO6Rg4idUOK7SoxnZ0Z3f6yXP+N6GlyYtQxh7iXE1E5uhBoTqyTv+ChR0X0CFeyR2PaRsrtdPG0gSQYtZ/s3VMSg3BsAMFExZjsLAtvDyYg18KLOtGkhFvMZOrH/tBlJlnIj99WfJKce4QG9GfH2xpYhJZ+PCPn+LHTHSs9hoLqiDpCgy66Z99yJexCAXljYZSTEO6Ac2+VxoeHs+LcdolV4awV/SyrAYxZJkJYlI1NW8rclPNAjFfpeElrUyFGiEmKCVCxp2aPb59Nw7mXnC0ZYiuZkXdfITrkRbjvEw82EAJNIpdbOV9yqLSkgTTlpjFxdhAWmovRyKqeQbQg9Eb3MHqPC6bNSxVjsxOMH4h7GtMtdqMPxhwZ7AsKXU2XQ8zNS1JKsgHwZAHK/IXHkAlrwmDg9ITpcEXQGfGL+AQYjca0/ciGpdTVx2tSACi6auo58GvhnKxQt6v7//YeoULU2lNCZKTUSMCqCruT1GdqtZc2EARYuNboIovlx3MCjFTPIa5aF4ehvYh7peowIJMqkYLtAh1Ss7UkR/7fQBIGMffKltn5aDM/j29TdY3BSKFJwXdbkwgKLFRjcGfxmWd7auxdYVbGe9bG+NPYCwNNtvQXXcyjIiqK3vL17A/Wxi/ETfg6QJZNlnaiiVtA3r5bD0s/lxiUFfLgwgT44XA5u+rKD7YWtfKx0tZ+cROSa2kqlwX2OpE+x418FSLp0iMaofpGCES7QOwxaVL86zDRwGUyW8MnBBHoRK9gwAW12xLdoGUZ5LGjj1xvFTVptG2C8EA/kLPRGsadyJQm5FeYcIulet9ne1MmJ6xPysukTrbUsw6VJeGcTFHIBL9gygHRN9ACnlSAJgUwwWcrappYlgUxrADsBVOzRKK4xkjZbVr75mejZjHmI3hSwGy/pxySIu5toYdPzIngHAT72j/dL9xMQ66ywuv11pwM7Elfbi43V99W2P/Fhju00bCtvkGdSXS6TgzBkAGnQebskA7GRZ6OvV4G627DooCqQBzWw60mP9TGsEFDS2tJiekbj66gc00t9swnl3tmj9d2bxMTsoz5YBaH/6dPbtHbRn/hNRdl614upqQjmJx+vhsj43KdKdx9LaXYcsSx680+lXv7vDjC0vH3G6q9LbnuX7zOJjdtCdLQMoSCz0jv7H+Amt+rXFQzEK2MlKUXSTBM9sqfRf7qAHCAsW/Iz1Fxp+62v9KAIQ+Ugz6ag8BX4GxxzruqVh3c2WARQkFvowUAY9lxRaOq8Ant3BM82kAS6TTdoBnY9tDYiTgBBXYZvW8A+oz20SvAUdBBh1S3O79jwiBWfKAPLgcDYGDmLsBaeBPE2JjCMNWLACDMhS2g03uIv+Sx6I8G7bmsiNOrpqs6fkwETHwJXxIuvIjCMFZ8sAECijdOMCBZZaWXau+DPGxVQasKG8C4gyWQKsfvW1+3FektIqvavu2/MB+WX6K2r17VnSmx0D0JzNrrdbFkAhAu7rsaLqkm27K8/Bzg6TNNAQd5CSrTNZ/yatu91J+HFfGx0JuX/1O2gJfiKYS3GYdkCUwV8K526QzVqWzBhA1pzNGkJyxfxUGYo8A9t2UeOnnbu7Ugc77Qa6O2xPAYh6hVIh+gSE55Kt7Zl89ekDMj33s+5uRtzhfMeBzDGiSBEe0VkOWdKRGQMAZ7s1y45Zams+1lq20Tis28VaDj7eZ7Naz2m7ASjdsAX2IbUPpZ1VBjDoZGUKNyaZusWZUVTnAOow6PULsJZ7JA6mONDEnHl3tpfnbzp8RpvLZ0NEZgyglA5ALfMXaNUHfWp92Pgm0ahfiPPCrpdN8Avn3pPyDcZDr8RR2hm1RKclU4BPunSsRByzRrEGSeHm+qLJT6cyBRGRAyZr0u7C0usg2GzXxKS+jPLUuMxMVwbFfAYXuWhusPtVck411tFxYrXRMVqgaWs/XepzubyyI5Yeob+SeClpg5LGa81d7mDy9xzJppcdYEpGDZcoMlDQHzBx8/MNgkIJ/2YiAVD8/IT05VYMS5bXjBVpCDwJQgdMfiI/Y0mAmkwTkZjKF+EKmfxEGqIJHTMmcXm5dMsATMrtxv1LmTETBoAILXempDP74jFeHIDYXvuHUpkDEwilpQQPIib/KvVbacll1JP2uYjzRnmLkoniZVKsyAyuTBgAHVyZQV+sNaG1x6YHapJrcI+IOpgQzwQG49KTSj79NTX0NCApxIGekuG3MXQ54ZVk+IQMgjKKFOyeAZCfNiuXAVAs7TGvkfhveHkmEAlU+xyCC2Cot0Tmw0Pt+gtJYVg+ei4Xl14rm5NQVpGC3TOA8dptGK0Jk4EqTB6uzhjRAuaG3Y29RnnXMnkmsAZF549g8ofqUjozt3/rE5L7k/tTYBSlDbr6nxQ2JatIwc4ZgOC1Uon/ei/ddHurfVpvAubmmUDXzEsw+XV5qYylLxgzfdDVZsFvsto2d84AyhYBGF+Ky6bvBmd8n2ne/nyeCWhMkk5+KkxLBYRX78e2PwXeiRf7U4ucArP5DCIFO2cAWZs2ph9SZba/jMFJH9N/xJmA1nQLMjAK2UI1GM1afY9BLta2wyiZUVAGkYLdMgCtpMGZcGW6WvyiCbliUe42yTc8z4gyAZr8G8dP4wW8dzhG4Tni6GDiSHfhLWb5xH2kYLcMoGwRgGHmanqWvV2vrRFjApYmf3sq4gNjKior9l6W0zdtW1lECnbLAErmAIQvxEXTQbO/tBkRJmB18q+O1qKh7bxqGY+v6XvgOJ/zSMFOGQAq3+4YIKvVC6nMvhBka29k/BOXPDCBev3dTOIJxCXNRn5S+G0cfxfvRSqxv48UYehDf33FWMHb10ZOCa4jBded9QuDjbqTK3ecERZesZRmLwj5NsDlNryiNE+0KzE7LZ84P0WhrtNUNbAsjYsMMcwax2GiNg/r6CQgjba/s54Bv8nSVA1I70uiICnNOTILLs17uRop+M2+vlhKcMcA6CVzKl9YQqCzGkPz3xa+OE67FjCBp355rzV/e0gtfJyfAtvaETouy5hGzdlPeEvtbz1/t72XzuHkp+EjS1MjBoC8MLC5grV1aRgAxutO0751vsqmv929x7y23ZSIQuQjBaDhhf1/98ZNxATieL1F0U4TcJy9a3ZyDt+sauKMtWUIOfYo7varS5am5sE0P46CqmjPXEcKdsgAmJGBRlEAh0h/1ZQWDMoW07xp8sEp6Xqa8utlsdceU2ch6vxU6sg0w7361klM+6teNwqiIYQtTNMSbFg+HnMzrHQ9mzMGYF9Lvk60i18Qs64a1xtzMhnX25VRfaLkysGupCQ307M/wiAnULpBIUleedpYJ0HDWU5+kCcEv9GESiktHphi0qCFPC7jabphAKWMAGz4YkCctjCmIVUgyCZCevGWfEDOTH4tVjzCQTU+NbtHcH5o0COjNDK1TXoc+gs7P5YrK1NYoD8NSeaCUXspMuHglg0mxWsyLMCpSel88ti1OenugxMloBB192vk7n5YuOOLRpWsiBuYXdTmEVb7HFtZeSMIG9YyImRIJopQzNmJIbmGPsYXYoo9PddMdMoPHdXF2AdoZEaRJIETfFld7EKd25FmWxH39aGdQYYWV1+4+eqZtJ4sD0nTwNHJZfdVXiURDkButeQOoIANwKdGIPMViJrpYKMvIpfqDan4OVPLw7hdFo0GTf6JuOUG5lfsx1CynQsY1MA8wxLb5xTQtubbGmeypRhnMKfmdwqu6O/mYVUMeW4kATDa6qTdjjJdtOQks3pIVbbJTvcmh1ADjrWdNmfKdElT5RDnZi9aT+fXJv0yO0Mx+5y+gu2DSex+YRuNfejS93u6lfy2HbfwJCo4qRkCLRvrdVqygBnElw7wtt1ohOmCup6Sfyfvc4qSFCkYkmEJGIBeI4NjVfXiYotp1zKd9J1E1cwUYp1Fhv5WZmvsofWEZWjbYNCS4YcM0gGCfTwga3wX/Ph3GwaUMWPM9BVtzoVRUdj01biab9om0LoEQKaLqmabzPLUl9uk74RIyauMWx6EGAeEdpKS6DekAzCC4yh7XEJ3UBtv7MYECJjBwI8LtmbNJIBEBOVfiPQmWlKyTIp1BkCcqmxKlrSYFmLSd3aCbN4nxILhl7OzZOjvWktesqKcDG0h5AF0B2iXvnxvBksFMdbYrSS7P308hpA2i5gcRApu61KsUWidAcAuGzEArdFX2IoKN+k7kcJLoqbnLmMYdnQmp/ndUuJKmvLWynbuLASKRM7vx0fHyBDIGh1ZV0QGQe1IwZdsNm2XAUBca5sulo8DkCGJkYi1yM7hTLwbnSvyUo4yjge7Yo0B6DgJkx+nJMl+8V5FokkLTu04TAhInociBeMdLTADaIibbYqdyaGKX9LUkKQsp+6QyA6b/oPxkegvAUOUYnz9+0mLn2LfjiM+DQlLuIgUbHW57tJkMSFmMYqp8RiZC5+1VWMXbREJGwmrXx1bdI1aPe3tdbu9tsoAyhYBuBtKB1tn3Q1ke4fQ5tBTvGujUTkuztmopxB1LC1+jiXczxD+/Voh6IlFBN8Uw+vRqGarDAB7tiVUxKjP8EIcZnLlaSPESpQp1glHIf2C2HnKWZCQkDadJv/kvj+wmcl/jZOfN2M9/XOnbbmo3NDr0bRpewyATBUz8ZIz7ZpBPqV+AwvAO/BC/DUcb/7JoES5shydPAk/g4cZU58kIRwT5BW2sPhIkrKFL6MZwc5/yZXaVy5pwG6kYHsMQJTuCPD38RXYyp6d/J+Ff1nTEEhM4NrSTZoRmAQ9UWoBE/+YXGFb2MzO7xsfkZ6GxhzLto5O/q3kLbhLq89yJMO4aXIMMs5skJEb5DHL0px7EdzEitbZrMHkubTod21xP17uPySvpZwl6VhtnKzb7DeigSuy4scZly8x06PRygnBYKqffPuPa6L2QIvzh/Ae/8XgTMVIlUzeYGuMrDEA0Zx7H/BsLQZE3VRgwv83xtWVmmQftGTrTCXF/e4uD7+jY81F7X6mGLwb1dtsYen1qn/th4PSkaN5/k8QQXCLYHrvvc/PAEziumSty7rExO8vs2f+aok9efbPWL2xTyi2F85wX+mozepPihdhK2ajHQYAAyCEe75utZcDKtMTmUnYiMPWve+qbV9LkvIyE/D6Uvh3dPd/X0v3PzwCWSAA5oE4iHTM+TdcNIfl3LPs6OQPbdRtxxKwbaJog57QOiD2PASx5+9CMzD2DxHP/COPQHYIzNz9W9k8vwOSwIdgAhttN8wRlNbI9dmgYUgyFi7HEYCxTfejIZPfQicKXAWdgEsiO0XV8Vc5ECAmwPkZF8Rqc3tL74IdCYCzW110VNdJBhsbPzvirP4iVEzBMGriBqHEzTCmuhHOVLfCqeoGzsmuAsYfwTUhPsSXBduWd/8+SCrcX1oOfmn8sbZptbrKyDWZLvJQtOzJpust8n+ydRJ6lu9aJ5Ecg8jsvh1uLVX1VhiAywhAmouSgqWsFx1cuUhhxAQmNsegKThMtc8VGBSnf00k09qZHhUNBemUFEaLvVFYOCiIqGJTiEeIC/8FcQk2Ij6BDsShPleq7VsAMfZTZPp1uy8dzGJJ/KosPhdt2kP+Jz2Uo4vM7qET+yBt9ekZgPMIwBZB/MFbX2YTG7Zjq0tbLGKN9oXk6gy+qL9NBCS5o45JTOpgcutX/k6qa+3rTfHnRGdwjp5JHbPhGhSbufjlG9IJBjYVnZVvChhfNxIdzGIDagii9ij1Ic5sIEbByMMRzKUt/bSg6FWtTxPHKTw0+6dgpntB7x6M1rcCmhFn4B0lFOoW7zG5fLmoO0arZvcvB3Qn/ZueAdTqmAAFvppv/yVjDfiLq+2g8tt4jfBn9dXDH8H4y3jZsIWJIJ3Bts611ntG4mqdb8DpPRdR4YCr+/UekCF+Eox0WovL5+IXzLAEGRvZtAiF1AMkb6Ee4O+OYOgQXRjHfPFnkWz0FRTN2Wkl+S5dj4A7t1yf9JQWXFywuyCh3YVtY8ZqdaaemnsHQUvfSLZ9XNPtBXXb/Auz+5shAaS+1iTOxDVpsTZx6aEFQeBu9szfjw3N2JmBtmEw4GJ69n8JVr+Eyf84HmPyh154xmfaeeuX2IaxB0Jzdj6g2PeMne5Mcvkbx5cXfq8eNJ50icFa3WCGbJHF+QI+pic3JnjnF3+tvpAfVEZxfhwi9+/Y9Nx/ZdPn/jwka3cypE28uw93J1q8o+WghcsCA2BftUBHRBX8a2xh096IDOuPYM2Fwy3/o2DiY5rQ+BJ9Y/1hjF+CQyw0vJaXjxjmTJ+tJYu79g96NwYmlcEFRqOjKxs1RTso6cOOM+g17hO88R4kxv/MaAkRdtHk3zh+AW1+LSyLlXRagqa80jMA19Fi0UEYVbyCbbB7QvtKa/vm7L+HOP4RRPrvheYzfKAj0ZqC245mS4dfOr7g0OPiuHDbVON4cVtuyJGkrSzPRD7vfMhrD3Xepv2NSfMdIfmvwQj+U9d7CUm1Nj37b8TEGL0PURJnWhLa5bEETVtReh1AFtFiYUyBr/pp2Zx9CWv142tKO3zxESbpYYBwQHNbLBKtXNhmEQ31AMR7WB0Ov2CaeUSfqDs8a+IcWvxPXDrbgvCwewPS1x2uWqV4jMbKP9qW5ApLOlsvx3qvwAi+q7f5AoXlglZUrmdw/asuv0jbRGoJANFiIG5ncGkmwH9I4j38DpT+R+syEvUdiFpKcOOvhrbLNvG0SwPT8vLJNMWzLCuX2Osww8Z0cHMJKY3X/hRSHO/HJjeU5Fmr+tyGPUhqBgAT3St5wuCqbe0tp7c4DVtQsRRShpWuZsNWmPEXL17NbnJTXH/OLzqpHFjEcYSB5yOkw+pdgS1F2p6lZgDsuXsuQfD5JC0hhSzfaBw2pUteX3rVGQ7CkWadlGOuTIylciKxYFlmvvYHAw9sDkzHsSz56GxJG7SmZwCgAmGjXrNBTNHqADhTdEyVEV0wc5Ur6hGjvDEzyWWI1Lav5txPyYZB2zFsHD9t3c/g+tIZ28sATP6z8IIzZywxGLhteJ3WR0FbasrKO2GFAbT3Y7EmqeK1gTeNuwUtPZjhCeP8Bhm1Rt32qbD4MmLg9wfN4/e9YsPYo8G9lb/EEGmrztqF9+t6DAbb7uOUteYLVBFwnbGx/qcu2WEAdEBDix0qEEbWSMGW4KPGUgC1yuVBm0sBGKK8aa0zqxWtHh3eXa1gzVj97C49+E4pa7SDsR6M5R/QaBgrcQcTX9jUecRp/LEt6uwwAFAjn588rrdnbFFWlHr0kUwxpAB46tlcCsgF9ZpNKCgkGOrb2l8n38ziSDv9FfSnWFoGxBb96etPjLtqF4n+rRUKZbdoq2vWGAARpLicwrrvI1vEFaUe/TLhpTKmx9JSQDPU9vFXxk1HZsSeuKrBqCrkii3thNSzlmxjGUDbiSvry5W1uqN+NBrPwg5hIipLGZ+BEe6Hc9J7Nmm3ygBoXSJXVogJONsDttl547q0/zVeqjiXhaWALU1vQDb56WONsjm47/tL/Rznx/rS0ySkXQZIiP4xdCAk4eClvjcNyUUsi8n/SiwFqGEn7DIAarR9euuagsmQjsJno5dqVXw2o5WYoZQPpmGG0P7bU6LRbobEAShDLti7P2j19JkUywBSqNLScgjJ649JwhHaQ3A9rQK/tCL42iJ0S/Yv+wyAaKRY9Igtb5/cfGvU4jNeMmMqYCMhW2rKOH9HRr3utSn+j2NiGIrFvN6wN3YJlwG6/0d3fq8DkqE/tYRjyUtuaGOZZVCfqEW8QxbX/Z2ku2EA1MK1xUPVUwpCfN44Hm8poPUBdDpPzIvs6W1diCmIL7uxjYI2nnlqdo+t5iEFxdoNWP3ixWOcFHnJQMKx1qcsKiKlH0mRNj8EPXS7YwDgWOBcJAJXSikIwA5q67keICNvyXiFs6cj83Q+JB0KRSqydMGXPVTxF9aEEJDg4kg7YRVRerxlwDyUyffG+uKBTrEkT5tKOFGkFuqZwta6trR1R5U7BkA0g3NJ2Uq1DnbX9eQ1CyFOxd0zlz/eOaPjuRs0q+3oLQX+FE/NHkCTWw2a7ckCaWdibKjOoKfQ4FvTZQA+FjiSbCq2kQtJZRUT/bX+47nJlwcDai/VLQMgOmnbgjS5lbr0nnnsryod5kADOxQKW3b0pPgTLPEkxsvxGCPR2sY1dBmgPpdj4t44Gn9N1hPnd2mpzAaNBalDL4EWcHRdBpd7BoBOkCZXb2Nk0KGsmgBwU6tf13hNQrEViQWJ/yQy27j0ll4KV1hSGi7jFBobV9QyAB5+siHuiH0MOU6kFnU+nKHaoD+zOhA1uYWdGEdKv95uZMIAdKPYxtCcrZeCMt9z9izDFyh2F3DqrpRq76AtQm0/b2Pw4eWnt/RiE9ddgBhdrO3P7uLrdyHLADDD04jMHH/yN8//kahTPMYIu4b11kvzC0q/qdhSUIreZccA8AJozlYl12F8IfEFOpVo3/y5yTdgNHVHn5J0qKhsMNqkFBM1a1t52Fu3oxDs6RuWQ8/gCPLvxF7zawigh0mk2zDAL68sUj3mWunX27XsGAC1TFF0UxrH9HYg/3u+SdTrpxnE0di0kNEUV1vpK9guSx5v6cX/Vc++BIq/kB5QmO+JcfNdjJBq1ncD1Od0wi07uvNIWNbIdHJlrpi1n5aEMlD69eLKexOyuNdrZ8FfyqKtDNuYl9cW70i8dpueI2Xd1zEpvpeKZij+xDij2PwTqerpLUx70ovsptR70s25F1mDH4+93g/oAU5Y2jwT3FbiL+lAFpa2Jn53UoCQCwPQ9E7P/dzGGjVF310UnUeItB3JRFqQQ/vuadf/DnHVkgqJ7HldVZz8DLsfK3xrluv+zuHLjwHQOnXj+Lsgxp6o2tmz/H6nYwJp6CbFX+hJRWkqXi8rV+TuXMKTV3LyQ4WJpVCcGIfrI2HnV7Y6gE6aSStMRh/ggJ3JFfi9FZGLLzBoqTPti2XFXxjtoi6etWYhGNZIb3pFJz8pQfOc/ARzfgyAWiel4ArMhat3tZmAaTxBC/23rvgLp2mr9fBh4W0xHMdVvTU/+quXU0mVoFF4xXyW3xKgg1Dx9FwTZ3ZaC3PUUXXOP9UnstWash3Eoa9TrhR/fQ2tJthSCIbVT+mkD5kYP1FBPRGEXij9yPbBkrl3FIzDnuUrAaxSp+3k17bChpFcpud8M9bkF9j07ENOqd6AKD+2tf5RBFNb5F7s6iILP+iHKjr5F2DyHN/fwRHWhWAAum/XFslp6ENH/cyvWjIW4vw1nCP3ohMioGvASdY3OKk7vNJ5eDded6ILIEVmXc2j6aophzWaiPL0YOIt0PDxSPykEEuANerheCKWJXYGUtivr1VWvB8UH0G7SLvy79Z+/7VtUvA7cST6Nltmsppuxi6xlrzM6uyyE9FVi/xjWO/zQ8UbOTsUaW9QOITZqc1OLcViAOgT2Z27PmjTDnRJa8G+L4W4jnPARdKmyDpRtLbUFL+hJcRta9Vwdjukhg1r9/ihmLoMhrFIaTUpr7S4+gIS2XXn+gtqkKL41uunqubSS10LLs1Ej+68K7gvyt/CMQANTEU1v52DDi3wWX3QhStpoLOxAv/WCmCK5JOlDiNrPCjOAUy+nUhOKftSTAZAnWrOvQUFxb0p+1fw4pAGWq2b8ZX9p4IT6oa85tt/KVj9kpvKC1Ir7ZiQ0xf8PgpCURcZxVECdpFFNzqi7kd9ydVKUCM7+WkcJ35/GcuMa9Ua0u7eQNLbX9TJT5QWlwFQWG2KEEMBMip6KcmvVLRrZt165q+WkPFTs8zly4XJfywTXU8KaIrLAKhTf3PXr6EweyRF/3xRj0AuCJDSjyJj59J4jEaLzQCoIxQ4o4JnDFDXcPBn1vv31GyxLl5FDHQs/8zCeqUZ0OIzAOrdzM7HNUdN09MillXKnAH84K0va4vCrJ2M4uBGRjzN2ek4RcAGvxIvf8Fzk9KPzL9LsrtTLzica+TRwaNccVigITpNVS7Ov2HclY1jxwTj38OEYbI5d1a01Jv66LC8XzRMeiZqe2B49ABo26z705zdwGYm/3po35rn/2RonrJloAjYlg/wdAlBcbcBB/WaLN3Itr46e8bvy5md/3xQV7vSmu+8gAn2eFfa+s089CRXhFTvSda64vTlg9NRraG2kVERXpw7OVkbho2FUgfk0cn/sE7mgF/P/P2YuPaVz1HHxgFPS5eEpeorkFa/XybCy8UACFk41mjb+jKhHEKrZOpH+FL+25DHjD359h8zUSePuPtC8wx4ECyXFMx3ccLPdYiksPLDNV7/NNIOnZYXUt3WrlLciIl5MwSOr8Jq8GZM9i24jyV9oX8/YxOf7WdtbX+72p7/+VNzc9CF3NWTXLpbYP6uWljckTqiU8Y9Lx8DIIDgWCPoiK6SX7K1dCt7/t7/MbAbT/3yHn0CUenXyOofZWv5wdB+Tr/zLwSPd3bgQLxyTYTb9wq/I6+wXmm6jnlUwqt98CiFEyvtBXHxF6GT4smzfya4OFMNBRn/lqg1zsJz8MsDB+voXf8F6e8PfFaGRFL6UaRrBLcpA7m9NJaTAdAZA3RkcpnPGGgtHekdjOBe1MZOhK6tg0yl+su/xqDEDCNZKh6KRViZwqRncICny76WkwEQItB+6+2WEloKRn79IRKjd992Oeh51C0Ujrsincagq6RSAJSvp2QOsfwHQZg0rbwMgHpM2y3EgUt1qc9YayX84Eeu3EYPygsr2i2o1Q6ENS/ZStl0OvNsYfGRsP6UJb3cDAAoEwcGJz5RFsChGad94sHef4dm/xQD8p2y9CUunejbwwxbfwPLzez6B7jM/nTgs8IlUix/RLROe4ZDAfpVegagMcRRyrQNUwA8I0kAo3oLPuF/F5pJsmp+/dc6DF3AwiYYDIVc/28J0pz63yFPC5OsI1mXVOnXC2I1GAApBelI5SIrBZX6DZMrkSIj1sl7eweoevd8V2iffnLfH6BRj8QotGxWDzh7OpeDURz1rxoMgMAJDh51BFS6atVnEG93hIr+VDnEf2j+v5GuneKXxgsXLgEQ+c/d80uu1L4i9gTK29MUwbqItCWlqToMgBB47p5LsGR7LCkYTsoh4AUMYei8wN9G1i9H4etPCMD5B5GAorBoHZ38W+hKDkflyfwZRaymyNUVu6rFADA4q0rBU0UZJ8lEuBVcB5Fc8js7biv9U7AaIhYPueBMhC/uz4fkyugxlH4Uy78CSr9ewCrHAHQHaXumAGcMSMZfZO097l7c++65UDf3JVY0ARP7m0Zdm/i/0AeofzTK6zATb6lHIn0oHLbtuupqMgBwatniCCia48GjFOtu4v+Y2SjorTFoyEfmgpORyQUnIng4httMmNSRMg92bnI/wDNlFyKLV5MBUJdzPnhUKX45yguua1QWv7Kl677iN3BtNu9vjoFDIamcZQU4wNPl61BdBkCovXD328TBXQIYVrcS6mrYs770FbmlL63SCZB2wgyCevudV+BQxPLXkal76anYfbUZAA0WODg4+ensx81QzCXChBiuFMu+A25bvPbl22I0cGOMvOmzkocfRaQuwOm96TsTXUP1GYDuP4xLMlYKQsy92fQrN0o7AMHriANBzJje9Lk/h31EphGDIDVWVukX4B/8HQ0G0D5jYCrbMwaw373wz54NgA79C++/KkTECe1f+IMDoTECOspw1RiOYUf+tD8hLR6jSNRp6ylL+dFgADQaOGNAH82c4cjoOH7N8/8qtEkd+EO+Evq8yg/I6nHj+IkoKYkiDGfJHHUoNUSgrjLsvX3jvQmVv5+e/VHWR1Djq/ILJlvH2Ze+uKh3BrQlXG0XovwW6qjoXMYePhJSyf1kArzWPhgjq+Go8Cw9Iwt8gOcaLg5+jB4DIBBH4uBRB2+L6ypJ864PCuGbXDfVVb8O69UiX433utJH4GZ0lgBdgzkSB4929bgUNzrqcMaTH8BAQts/ipOf3onRZACkFFxZyVgpWIopOHJEaqXf0cmTI9fx1Q6PJgOgzuO8dr3dM6oj7/uNTSEEkSnBAZ4uh2p0GQChWuGDR12+NNWoWx/gWUkPvzjjM9oMgJBqnzFwIQ5oPm/JESClX4kO8HSJtmcAFE5sUT0IeRC23/4aCQQokvQIavwHja1nAIQKnTEgW8QEFgaB5NOqgwD0PifKHsvf5mh4BhCgSV8EOtrZX5VFQCv9EEG6sh1M0LHRNASKAqo591NwRf+SRGFUymcUy59vLesZfq4g9xJAL7LXFg+W4YyBXrL9fTQCCDc+5Sd/P0aeAfRi0lYKlvvg0d4+jfo9RYqmiNH+6kPAM4A+SJCglYLaXNgrBQfhU6I0KP1Kf4CnS7g9AwhDl74YpTt4NKwzI5pOQWAqcICny9HzSsBh6E7P/UxwRIjxV8kQ8Eo/kwHzEsAwlNrbRvPDsvnnxUKgSgd4ukTWM4Bh6NIZA3QUtLcUHIZUYZ5LpR6u0gGeLoH1SwBTdJ+Y+7qoqQsIUHmTaRGfL3sE9OQfYffeuIh7CcAUMTpopMV3wH/8rGkRny9LBLDml2ov85M/FuheAogF12rmp2b3CIHosYxvTlLcl7GLAJgyAqvKQ6MQx98ucniDbVc4UvU9cX4Xq4k9iP67DUuDW0aq73l2Fk5bivHLiPL8hlxmZ8huI09yfNseAY+AR8Aj4BHwCHgEPAIeAY+AR8Aj4BHwCHgEPAIeAY+AR8Aj4BHwCHgEPAIeAY+AR8Aj4BHwCHgEPAIeAY+AR8Aj4BHwCHgEPAIeAY+AR8Aj4BHwCHgEPAIeAY+AR8Aj4BHwCHgEPAIeAY+AR8Aj4BHwCHgEPAIeAY+AR8Aj4BHwCHgEPAIeAY+AR8Aj4BHwCHgEPAIeAY+AR8AYgf8Psk4coVMnjEEAAAAASUVORK5CYII=;" vertex="1" parent="BfqyUTglAI3pxGKkoa-n-2">
          <mxGeometry x="11" y="398" width="63" height="63" as="geometry" />
        </mxCell>
        <mxCell id="3g_PjQ3nQ4SO2ehC0IPx-6" value="" style="shape=image;verticalLabelPosition=bottom;labelBackgroundColor=default;verticalAlign=top;aspect=fixed;imageAspect=0;image=data:image/png,iVBORw0KGgoAAAANSUhEUgAAAQAAAAEACAYAAABccqhmAAAAAXNSR0IArs4c6QAAAERlWElmTU0AKgAAAAgAAYdpAAQAAAABAAAAGgAAAAAAA6ABAAMAAAABAAEAAKACAAQAAAABAAABAKADAAQAAAABAAABAAAAAABn6hpJAAAe80lEQVR4Ae2dCZwUxb3H/9U998zewO5yw3JGH4eoRF8UQQ1q4geNUdF8EjXRCEZJ8vISNcn7RPPeJ4fJJy8eiZoYjxg5DPEg8QnGA+OJhsMDAQEBYVmWhb3v3el6VYNDZndmdrpneqa7Z379+exOT3XVv/7/b039u6q6uooIBwiAAAiAAAiAAAiAAAiAAAiAAAiAAAiAAAiAAAiAAAiAAAiAAAiAAAiAAAiAAAiAAAiAAAiAAAiAAAiAAAiAAAiAAAiAAAiAAAiAAAiAAAiAAAiAAAiAAAiAAAiAAAiAAAiAAAiAAAiAAAiAAAiAAAiAAAiAAAiAAAiAAAiAAAiAAAiAAAiAAAiAAAiAAAiAAAiAAAiAAAiAAAiAAAiAAAiAAAiAAAiAAAiAAAiAAAiAAAiAAAiAAAiAAAiAAAiAAAiAAAiAAAiAAAiAAAiAAAiAAAiAAAiAAAiAAAiAAAiAAAiAAAiAAAiAAAiAAAiAAAiAAAiAAAiAAAiAAAiAAAiAAAiAAAiAAAiAAAiAAAiAAAiAAAiAAAiAAAg4jwBznsrQOJaA8rN3eOz3bJ2LTF7it8xckC35kGsNAcWabJErCICAHQjAAdihFKADCFhEAA7AIvDIFgTsQAAOwA6lAB1AwCICcAAWgUe2IGAHAnAAdigF6AACFhGAA7AIPLIFATsQgAOwQylABxCwiAAcgEXgkS0I2IEAHIAdSgE6gIBFBOAALAKPbEHADgTgAOxQCtABBCwiAAdgEXhkCwJ2IAAHYIdSgA4gYBEBOACLwCNbELADATgAO5QCdAABiwjAAVgEHtmCgB0IwAHYoRSgAwhYRAAOwCLwyBYE7EAADsAOpQAdQMAiAnAAFoFHtiBgBwJwAHYoBegAAhYRgAOwCDyyBQE7EIADsEMpQAcQsIgAHIBF4JEtCNiBgMsOSuREh0vvLyFis3KS16Rp/VQUyglb3t+/ORc2ca7V5iIf2+VxF/fSMtZjO71MUignP1KTdM1QDJvFFLY+QyG6knOf9xVFUc/QFTnDSPydtzKUoDM55806Y+ZNNGVVx4Oct1Xxu/jF+eoE0AXIm58rDDGTgKz8jPg1ClPOZyPaniTZEsjDAw4gDwsVJmVGIFr5o1Ly2QnAAURLGZ8gIAgoq9qXyzv/YBj56gTgAAaXNL4XLAFx5/8JI7oiGYCIE6hsX5HsuhPD4QCcWGrQ2XwCK9ouF3f+W1MJVohdrKxovTlVPKdchwNwSklBz6wRcK9omaso9JDeDJii/IxWtS/UG9/O8eAA7Fw60C37BB5vLAkrypOMmN9IZgqnFfRY1zgjaewYFw7AjqUCnXJGQOGee0XlrzaaIWNUprjCzzr98SAcgNGSR/z8IRDp9ycf9EtlqBgwnK5Utt+SKp6dr8MB2Ll0oFv2CCxvr1QYu9eEDG6mR1unmiDHEhFwAJZgR6ZWE1BUulk24zPVQ44dMI9ihiPJVJW00sMBpIUNiZxMwL2yfSYRX2KWDaISzafl7VeZJS+XcuAAckkbedmCQD/jPzI66p9KcdmiSBXHjtfhAOxYKtApawTk3V9O5jE7AzkgqK5sXWS23GzLgwPINmHItxWBMLHrs6UQJ/ajbMnOllw4gGyRhVz7ERAj/8S0q7OlGGNs9rHxhWzlYL5cOADzmUKiTQmI6b6Lze77DzY1zMhRg4FwAINLEN/zlgBnlIs++kVOAggH4KTSgq7pExBz/sWPfX76AvSlFIOBE5z0jgAcgL5yRSynEwi7z8uVCYoadkwrAA4gV78K5GMpAUVhc3OnAHPM1GA4gNz9KpCThQQ4UW6WhBc2cgqPt9BUQ1nDARjChchOJcB47hwAY8p4p3CCA3BKSUHP9AmIhTvMePFHrwJyVqDeuFbHgwOwugSQf/YJaH2+7GfizByEs7L4uOz3uZk+WVxUSsNH5qwfaDFV87Pv72mmfXu3mC84gUQWfopWLXknwZX0gpa3zVNVtj69xOmlCl8e0le3ROtEVftmcfavbes453OJKT4hQPDmLVIDxvmWsMaa6cqil9PTKHEqy7cGE02z2xKrZm4od7k3KyUls82VmliaVn/wFXbwQE62BmOzT02shMmhkT0I2d6LTBabUBznbK+4YJ4DUJl9WgBiPgL1ey5iKl/EODuLsXCZ2I2AYr2FmFIc5TJfVP1j5yJMVcXpqnYxyEjbxJl0DjtUTVvbd0XJhmgCo5+WOwCjCiM+CBgmEObdpB6vVIaTG03AiXcNTiPfEZCvIStcvIkoK7Ks2GmqJJLJMQbxx0hT1NuUVW11woms1TRtHTWEnjKyjyHGAAaXFL7nHQG3IprOuTw4bY9mJys+W9X2hMZoSzZeQ5b5yEVN5W5GqsJWqpUd3SS6PNH8U32iBZCKEK47nkBfWG1WXeHc2cHYdrlasFLZ+SNNbDYysIGfAzVcfaJ7oO+AA9DHCbGcTMDd1UzckzMLRBfAp1R2bP6kqZ6zfGVGwuG8QZeVRwYO9WSMLoAeSojjbAIGKoQZhsqmvhWVX+ou8l1nxAY4ACO0ENexBDinJscqb0Bx+VTAQHTx/AEHCBQAAc74+nw3Uz4eNPpIEA4g338VsC9CgIfZ03mPQtMeMWojHIBRYojvTAJcXe9MxfVrrXHlYf2xj8WEAzBKDPGdSeBL/n2iibzHmcqn1lqM/j9JV4bqU8ccGAMOYCAPfMtrArl9HyCXKF2c3Z5OfnAA6VBDGkcSYDycl+MA8u7ftzj0TjqFAgeQDjWkcSSB8OLip+VIuSOVH0LpdO/+UiQcwBBgcSkPCXC6P5+syuTuLznAAeTTrwG2pCSgHQ7el+htvZQJbRohk7u/NAkOwKYFC7WyRGAZ6xETZu/LkvScihV7ET6Ubt8/qigcQJQEPguGgBamn4tWgHiH3rmHHMvQ6gNLM7UADiBTgkjvPALiebkWZrc6T/FjGssujNarXWxk4Y9ktsIBJCOD8PwmcGXoEY3oJScaKZzXUvpy8Q4zdIcDMIMiZDiSAO/VMm5C59pw2e8XM/4Mz/lPpiccQDIyCM97AqqbpjnJSLFa8GYz+v2xNsMBxNLAeeEQWN5+lViKe4VTDNa49qym9M03o98fazOWBIulgfO8J6CubF2kMXazuPOdFlk/xwEWixH/Ffxw0TVmV35pOhyAA34AUDEDAsvbK8WuGmcpTJlHTBP7GrBqJzV7xR4J92qLgzdkQGDIpHAAQ+LBRUcQELvrEOsfL3UV24DPEhW+VNw1Z4rlsmeJNfImHLvTi5B0F+KXgnN8RGYrcnarqPx3ZjNrwUfnYcH2Sjo1QzQQyCsCsr/Pw+6lJNYwyLZhBloAbHy2lYF8EChkAnJ2oqbRt+mK4lW54qDbAShMq8KrA7kqFuRTSARE52QPadr9mtp/H12hf01/MxjpdgCk2GiDRTMshwwQsJiAHN0XsxEfoctD66xSRb8DsEpD5AsCeUJATj0WA5NvipWJNoQ15c101vAzGwUcgNlEIa9gCIRZb6k7rE7r48qx7ccZVSnKJ7MLNd6tcfamhOFmWnd0vX75LMJOBxyAnUoDujiGQORFIrHlWB/RhlilRXjcIeLY9nDSnAjbQoRihUeAaZpl/XYzacMBmEkTsgqGgNZPT+WDsfodgOjT5IPBsAEEMiUg+vHbzHofP1NdMk2v2wGIbYcOZZKZu783k+RZS+sW60M54bArv0TsnMJU6p6WrmnswZeIU6qw888/35sqTqbXdTuATDIa1lJPJz59G53w2qMU6O3MRJRpaWWF+tSGVVSzyf57RRR3t9GnnvkZ1ex83TT7syWo8sjHNG3979KrWNlSKoncmu3/oOnP301lHc1JYiQO1jT3ysRXzAk9deHFM+d+dtHrTdz1U3MkJpeiJr806Mol358lHnGIt6mMHWP3v0vVz91BamcDuY/uoordb5KrbCy1Fg83JsjE2PJHWrPul+Td/xZ56rdRkRqi1uETSGM58YeGLBl5+CMa8/xd5GraTf6P36biMKPOYeOoT6xmYbdjTO0HVPX8LyLlHGReaq2cZEumktv4vZuo4h93k9p6kEr3vk1qxURqLapIiTQy+n9F8K6UEdOIIO/4ZRNP/G+F8cfEe0tjxMtLp42aMOnN2o927k5DnK4kul8Gku9RE1N0D3xUNtXSiM1ryLv31YSKdE09j+pmnE+NRcMSXjc7UN7xq+u2U+l7a8lzKH4Xpd6qmVR/2peovmyU2VmnJU86qWFb/07+3S/GpdeCw6n55Ctp/7hZ1OfyxF3PdYBs1U14+y/k37F2QNZdNQvo4MmXUFOwdEC4lV/k72DyxicpsHVNnBo94z9DTdPPpgPVU+KuRQPEqjxLtMVF90e/m/X56QsWzRW90YdEhZweK5Nz6hLT8G9/c91ffx4bbta5bgfgXtk+U2O0ZaiMJdyq+l1UvHdj3I8hWTpZ8dqnnkVHRk2nVl9RsmhphUt9hjceoKLarRTc+jdSettTypE/2pYpZwz5I0gpJM0IsqlffmgnFX/wfEInNVis5glRx4wv0FHhCI6UVA6+nPXvo+s+pOKPNyesTLGZt81eTIcFUysdgXRS1fu2UMmmx0npaIhVL+68r2IqNZ10ER0RLZhOT+D49chqvPWhMrMW5phzzqUlqtIjW9VXMcbmH88owYlwPC+RFv75W88/Y+rjR90OgMTCCqpKAwYCZd/J09tBoSP7yHdwW8K7VQJbkgbJytc9cjq1l42mPm/AcOsgok9Xq9BnLwUObqVkrY+kCsRckHfZjilnU9uoE6jbX2xYlxhRCU/l4FN5yyHyi/ERr2gteRt2k+fA2wnj6gmUP1rpSHtKqqijeETWKlt52xEqE0394q1rSW3Zp0e143F6R59CrVPOpJbhE7Om3/HMxIlkXFm/m0K171Ng+zpdN4DY9PJc6twx9iRqqZ5KDcVVpizOceo5n1vImXI5Y8pixsg/OM+hvgtHsEdR+FOiZfAyedmbG9asqR8qfqpruh3AaedfPE/TtPWpBJp9XRZA2Dt0y8B76L2UXt0MvaQu/SXV1FM+hrpERQu7Bw7S9rm8xx2FrCju/p5ItrKSq33HnqJ6G/eT6+g+XXf4THSWrYOeMadGHGqsro1C7z4l9dCPbD2VtzVQsLGW3K315Gk6QJk41MG2SIfVPXY29YcqqF2MabQFywbcbQfHT/V9gL4dTWLMROgrxnj0tPpSyT5+XXG18nDfRtE/P0ScdijEtjN16KdjPKxVif37ponRpZliRd8qkfa04/LMOuFUJ1on24+LM9BSsL0DOG4UTkwnIPu8muohV7Oo5Ed3mC4/XYFRvWR62SIccIT7yVe/c0BQrm4AAzK18RfRSrj6refWPKJHRbwLoIdSnsYx845uJqJYvRINgpqZV6HLst9zr0IvEdgPAjkkAAeQQ9jICgTsRkB3F0A8ptjbMWnhut7iqoV2MwL6gED2CPBwyc4X/pe1Hkj9DDl7ShiTzNQhH9fHCtM9CBhJdM+eRUp761OxAnAOAvlMgIdCm/iNNXPy1UZjXYAd/QOneuUrFdgFApKAuD1yn/uqfIZhzAHcPbmH3K5jD7TzmQpsAwFBgIdKdtG1Y9/PZxjGHICEorr35zMQ2AYCEQKMOFc9V+Q7DcMOgFzqv2Yc5Tsd2FewBHgwtJmWjPxnvgMw7ABEt+jZfIcC+wqcgLz753nfP1rChh2AtkN7UAyO2G1146g9+ASBjAlwf/CFfO/7RyEZdgAkBwI93iNRAfgEgbwioChhTmWX5JVNQxhj3AEIYVx1bRxCJi6BgGMJ8EBgDS2raHWsAQYVT88BaPSwwXwQHQTsT8Dj6eQ7tLwf+Y8tCGMzAWNSKne81y92NE39YnlMGpwSfW9cgC6cUUajKnwDcNQ399D67S106/a2AeH4kjsCrKjo2vA3Jv4hdzlan1PaDoDdtetD1tkx2XoTnKHBpWVu+p/Pj6ZJI4de3KT2SCfdsfYA3VOL+Va5LFnR9N/Kl00+MZd52iGvtLoAUnHucj1vBwOcoMOjn66gh6+enLLyS1tGDQvQLxdPomfOyf0af05gmRUd5cAfVy7IimybC027BUD37hqhtHbIpZHSl2FzOGao98ZFo+nUqeVpidpX30ETH87aitBp6ZSPibRQ6F66seaGfLQtlU1ptwBo6aTD3OOrTZVBIV//1YnFaVd+yW1cZRAtgWz/gLzeo4Va+SXa9B2ASMxV5cFsl49T5Z8bVOlrC5LvMXC4oYHefe992rh5C9XVDVhseYDJZ88cTjeOGjhgOCACvqRPQExo03z+RekLcH7KzJrvN+30KmO628XTAN0LizgfmT4LkjX9Ozs76Y/LV9LDqwduTDF/7hxatuQ6qq6uistADgyO/cOuuHAEZEZACxU9QDdOvC4zKc5OnVELQM4K5H5/+ovZO5tdUu1neRSaXVMad11W/m/d/MO4yi8jvrRhI33tW98l2TIYfMiBQfn4EId5BLjPf6DQK7+kmZkDEAI4uX5oXrHkh6Svn1Aslk2IR/vkmr/Ruzs/SmpkY0sb3ffAQwmvnzOtJGE4AtMgoCj93KcuSCNl3iWJ/5UaNfGm8S+S199kNFk+x68qdic077En/5owPDbw/15+nRqb4nGWh9DLiuWU0bk/8J+0pGbg5gIZCXRu4swdgLTd533UuQjM1zzki6+ssmkv7/B6jkOH4nd7Ki+yfhNQPbrbPQ4PBt/Qbqq50+565ko/UxyA1jf2e+Tx9OVKaSfmEwoGdavtdsc7kK7esO70iJiEgGip8psmnZ7kakEGm+IAIrulur3LC5JgAqMbO+J9YSAQoBmTJyaIHR80dsyYuMCuHjiAOChGAlyufq3UP9dIkkKIa44DEKS0D8PXk6LE//ILgeIgG7fVdQ0KOfb1+q9+JWF4bOAt37iOvN6Bm47K69tqO2Oj4dwIAfG8nwWD19M1Y9DvH8TNNAcQWSjE6/njIPkF+fX23R3U3N4bZ/uc2bPo+iu/GBceDfjCZ+fThRecF/064HPNjoJ5RX2A3WZ80YKh+8JLx2PSWgKYmU0EGizw2MSgNjExKPEw+OD4efxdvgB05bxRCS2UMwDX/v0FeuK5lyLXL5h3Oi2YdwZ95vTEO0e//G4DLXi2LqEsBA5NgAf8r/JlU84YOlbhXjXXAQiOyl07f0udnUvzAakn3EcTOg/RaH83sca9dKDNQz2hEVQ7bBL1qql93I4vT9D1BuBQrI629NBnH9xJW3q1oaLhWgIC3Ovbx789dXyCSwj6hIDpDkDKVX61rYN6ex05da28q5nKmvdTResu4gc3J/yhhH3CCfzbZVQvnMFQh1wDQL4G7PPEj+oPlS722o9X7ybZpcBhkIAY8dfUivGFtLyXQUKR6FlxAPT7A0uVo0d/m45CuUwT7O+mos4mCrXVk6/1gPjbR6wz/hl8Ip00TwntPGUJtXqGfrz329mldNVZIw07gb5+jZ7acIgWv4r1VxPxHzLM4+nRhnmm0FdqPh4yHi5m711+dufObayrc5odGMuKHupuJZ+4u7t7O8nXtIc8bbWkdh/OSL320fNo2+SzU8rQuxpQVBBWBYqSSOPT5eoTg37zaem419JIXXBJstMCkBjv3D1W6W7fI14WMO9JQ4LiKe7tIL/4k4e8kzMtTEpYrFzeejAS5m9I3IyPXMzwn+wKbDrtRt1S5MDgBXOGU2ko8ay+9q4+2rizmf7jhXr0+XVTjYkoVvYRb/hdSDeMx+Y1MViGOs2eAxC5zrh3xy9H8qbvHGntodoEj8WkYtG7ciIl5Z069lD7O8nTtCM2yPLzd878L10DgrGKyvf7Z1X7aewnC4PWt/TSroZu9PVjIRk9R+U3SiwSP6sOQObw+dsf6Wx4/Ql/WtrZPJGm+mjjmd+3uZYFoJ5s9geCi3DnN17WWW2eS3X8YyaMK6qZkZdbifWVTjZOHCnMJeBy9Ub6/Gj2p8U16w7gz189s6F/yjnfVf2hvHMCdTUL0oKORCYRcLl6NK9yMgb80ueZ9S5AVLWz73j2/fYX7jsh+t3Jn/IRYMO0i+njiolONsPZurtd3ZpHOZVumv6esw2xVvucOQBp5nm3Pdzd9MaT8W+6WMtAd+5VJ82j4dNPomdqg1TPEo/k6xaGiOkTECv5ahXuk/CcP32E0ZTpT1GLSjDwuatn4pjppy48dPitdVnvehhQK2nUsqmzqerEU6h0zEQqHTmemHpsJ7RZygFad0Df4h5JheNCWgTEDj7viB18ZqWVGIniCOTWAfz0zIbJf9rz72Wtja83bX87p62POMsTBIz89LlUNm4KFVePodDwanL7Es9mrhktFvyEA0hAMMtBgeADfNmk67KcS0GJt6QSnv67DxYXb31iuVVOIFg9gUrGTaKiytEUqKgUn6MoNCx+Oe5kvwQtrNHK9btpZ1d/sigIN5OAomjiff6vF9rGnWYiTCbLEgcglTnlnneWFW3+0687DnyYNR3kHd1XUk5BUbkDZcPJEwhFKnsyGEbCt35YT6s/bDSSBHHTIeB2dWke77l00yRM7U2HX4o0Wat8KfKNXD7l1299p+i9P//CiBOQ/XJ/2bBI+mjlll8U1UXFVceW0vKVlCVtvkcSmvCvVyzRdf9Lu6hRvLSDIzsEuD+wnbPyuXijLzt8pVRLHYBUQLQElp481vebYNAzQBc54GakWS5l5fpAKyBLxEWTn4qK79GWjvtmlnKA2E8IDKh0VlGZu+LwF8+cEHg8FBroBKzSR2++aAXoJWUgnnzEVxQ4i64d+76BVIiaJgFbOACp+8K/Np80pYQ2DCsP5PTJRJrcjidDK+A4isxOxMKd5A+s1pZNviwzQUhthIBtnsevu7B0091bwhXb9zQ1GzHA6riTxw2jyX5H+SyrkcXn73a3agHf51D549FkO8Q2LYBYQ8//S90/T64pneNyHZt4E3vNjucH61vp92/X2lE1e+sk+/pez0PaN6dea29F81c727QAYhE/e0n1ya/uav5xa1u3I14gGllZTGdVhmJNwHkKAjwQ3KkVB6ah8qcAleXLtmwBRG0+c/X+ySeUBzdXjQgNvfBeNIGFn93dfbT8H3toP7bwGroUPJ4WzR+8lZaOvXfoiLiaCwK2dgBRAJeuOfzclFFF53i8qq31bWzsoLtf/ziqNj5jCchdo3y+B0Q//4bYYJxbS8DWFSoWzawV9afPGeZaO3pEsEhRbdlziai7a88RemxrQ6zqhX2uKP2in/+Itkv5RmT3qMKmYTvrHeMAouTmr667fUZl4IflZX7beoHNH9TRmo8c9TAjite8T1nx/b7HtQ/pq6j45mE1W5LjHEAEwF3cu2hs/QufGlN8us/rsqUNBesExC68oqm/StuhfQ0V3+zqar48W1YevWaesrruhOkh97MTq0OjmarYzpaCcgLypR2v/zHSJtwY2S5ebyEinqUEbFdp0qFx5bqGOR7GVlRXBCbZrUWw9+NGeuRdfbsNpWO7pWnEc3zu873HFfUndOPExy3VBZmnRSAvHMBxy0XX4NLxDc+NLPN+xk5jBHKi0F821+XPm4Neb4Pmdq+mHdq30cw//utz5El+OYCYIljw+KEfTCr3frdymK/EDjMKOzt76fV36+i1I50xWjroVAzqid12X+Fe5Xu0pOafDtIcqg5BIG8dQNTmU5bvO2FqWeC+keX+08Qrx5bPLa492Ezr3j/sjAlDHk83d3s+UFzqb8JLxz8YZYrP/CGQ9w4gtqiuebFlIe/v//GwEs+soqDXsmV95WvEb289SM8fbI9Vz/pzRhr3+PZzt/vv5HPdiVdyrS+SbGtQUA4gFuYNL7VMau3t/02p33V6ScgT9HhyP8uwubmLtn50xFpH4HY3cZdrE+dsBX1r8h9iGeE8/wkUrAMYXLSXPdNwRcClXl8UdM0oDrhLhEPI2USj9vYe2r7nKD2zr2WwWuZ+93g6RZO+QawDtUlh7BkssmkuXidKgwNIUmpLXuMjmpqO/pffy871q6zS53OFSot9WX3xX75QdPhIB33wcRNtaOxOopmOYDnv3uU6zFX1ICP2iqaqG/CYTge3AowCB2Cw0OWcg3Afu1pR1KkBD5/scSmlfo8aVBRiRSGvaQ5COoNDh9to+4GWeGfgdnWQ4u7lLrVDLOu4izPaRYy9T23dL9It2CrLYJEWdHQ4gCwV/+eeOPyDkEcZsNlAcVCdIO7I48JhLW7xAIXxbjGXsba5k2+LquRSeKNP/B1p7Tj09Cv9T+GZe5QMPkEABEAABEAABEAABEAABEAABEAABEAABEAABEAABEAABEAABEAABEAABEAABEAABEAABEAABEAABEAABEAABEAABEAABEAABEAABEAABEAABEAABEAABEAABEAABEAABEAABEAABEAABEAABEAABEAABEAABEAABEAABEAABEAABEAABEAABEAABEAABEAABEAABEAABEAABEAABEAABEAABEAABEAABEAABEAABEAABEAABEAABEAABEAABEAABEAABEAABEAABEAABEAABEAABEAABEAABEAABEAABEAABEAABEAABEAABEAABEAABEAABEAABEAABEBAD4H/B/38twmeydZ2AAAAAElFTkSuQmCC;" vertex="1" parent="BfqyUTglAI3pxGKkoa-n-2">
          <mxGeometry x="81" y="398" width="63" height="63" as="geometry" />
        </mxCell>
        <mxCell id="3g_PjQ3nQ4SO2ehC0IPx-13" value="" style="shape=image;verticalLabelPosition=bottom;labelBackgroundColor=default;verticalAlign=top;aspect=fixed;imageAspect=0;image=https://miro.medium.com/v2/resize:fit:1400/1*elhkzfxilDPelGEHiPZ2Ig.png;" vertex="1" parent="BfqyUTglAI3pxGKkoa-n-2">
          <mxGeometry x="152.47000000000025" y="398" width="188.53" height="63" as="geometry" />
        </mxCell>
        <mxCell id="3g_PjQ3nQ4SO2ehC0IPx-14" value="" style="shape=image;verticalLabelPosition=bottom;labelBackgroundColor=default;verticalAlign=top;aspect=fixed;imageAspect=0;image=https://iconape.com/wp-content/png_logo_vector/istio-logo.png;" vertex="1" parent="BfqyUTglAI3pxGKkoa-n-2">
          <mxGeometry x="351" y="398" width="120.38" height="63" as="geometry" />
        </mxCell>
        <mxCell id="BfqyUTglAI3pxGKkoa-n-93" value="" style="rounded=1;whiteSpace=wrap;html=1;fillColor=#686868;fontColor=#ffffff;strokeColor=none;arcSize=5;container=1;collapsible=0;recursiveResize=0;" parent="BfqyUTglAI3pxGKkoa-n-1" vertex="1">
          <mxGeometry x="-5430" y="707" width="290" height="150" as="geometry" />
        </mxCell>
        <mxCell id="BfqyUTglAI3pxGKkoa-n-94" value="&lt;h1&gt;User&lt;/h1&gt;&lt;p&gt;&lt;br&gt;&lt;/p&gt;" style="text;html=1;strokeColor=none;fillColor=none;spacing=5;spacingTop=-20;whiteSpace=wrap;overflow=hidden;rounded=0;align=center;fontColor=#FFFFFF;" parent="BfqyUTglAI3pxGKkoa-n-93" vertex="1">
          <mxGeometry x="10" y="68.4" width="270" height="81.6" as="geometry" />
        </mxCell>
        <mxCell id="BfqyUTglAI3pxGKkoa-n-95" value="" style="verticalLabelPosition=bottom;sketch=0;html=1;fillColor=#FFFFFF;strokeColor=none;verticalAlign=top;pointerEvents=1;align=center;shape=mxgraph.cisco_safe.people_places_things_icons.icon2;fontColor=#FFFFFF;" parent="BfqyUTglAI3pxGKkoa-n-93" vertex="1">
          <mxGeometry x="110.44" y="13.6" width="69.12" height="50.4" as="geometry" />
        </mxCell>
        <mxCell id="BfqyUTglAI3pxGKkoa-n-103" value="Legend" style="shape=table;startSize=30;container=1;collapsible=0;childLayout=tableLayout;fontSize=16;align=left;verticalAlign=top;fillColor=none;strokeColor=none;fontColor=#4D4D4D;fontStyle=1;spacingLeft=6;spacing=0;resizable=0;" parent="BfqyUTglAI3pxGKkoa-n-1" vertex="1">
          <mxGeometry x="-5375" y="930" width="180" height="210" as="geometry" />
        </mxCell>
        <mxCell id="BfqyUTglAI3pxGKkoa-n-104" value="" style="shape=tableRow;horizontal=0;startSize=0;swimlaneHead=0;swimlaneBody=0;strokeColor=inherit;top=0;left=0;bottom=0;right=0;collapsible=0;dropTarget=0;fillColor=none;points=[[0,0.5],[1,0.5]];portConstraint=eastwest;fontSize=12;" parent="BfqyUTglAI3pxGKkoa-n-103" vertex="1">
          <mxGeometry y="30" width="180" height="30" as="geometry" />
        </mxCell>
        <mxCell id="BfqyUTglAI3pxGKkoa-n-105" value="Person" style="shape=partialRectangle;html=1;whiteSpace=wrap;connectable=0;strokeColor=inherit;overflow=hidden;fillColor=#09427b;top=0;left=0;bottom=0;right=0;pointerEvents=1;fontSize=12;align=left;fontColor=#FFFFFF;gradientColor=none;spacingLeft=10;spacingRight=4;" parent="BfqyUTglAI3pxGKkoa-n-104" vertex="1">
          <mxGeometry width="180" height="30" as="geometry">
            <mxRectangle width="180" height="30" as="alternateBounds" />
          </mxGeometry>
        </mxCell>
        <mxCell id="BfqyUTglAI3pxGKkoa-n-106" value="" style="shape=tableRow;horizontal=0;startSize=0;swimlaneHead=0;swimlaneBody=0;strokeColor=inherit;top=0;left=0;bottom=0;right=0;collapsible=0;dropTarget=0;fillColor=none;points=[[0,0.5],[1,0.5]];portConstraint=eastwest;fontSize=12;" parent="BfqyUTglAI3pxGKkoa-n-103" vertex="1">
          <mxGeometry y="60" width="180" height="30" as="geometry" />
        </mxCell>
        <mxCell id="BfqyUTglAI3pxGKkoa-n-107" value="Software System" style="shape=partialRectangle;html=1;whiteSpace=wrap;connectable=0;strokeColor=inherit;overflow=hidden;fillColor=#3162AF;top=0;left=0;bottom=0;right=0;pointerEvents=1;fontSize=12;align=left;fontColor=#FFFFFF;gradientColor=none;spacingLeft=10;spacingRight=4;" parent="BfqyUTglAI3pxGKkoa-n-106" vertex="1">
          <mxGeometry width="180" height="30" as="geometry">
            <mxRectangle width="180" height="30" as="alternateBounds" />
          </mxGeometry>
        </mxCell>
        <mxCell id="BfqyUTglAI3pxGKkoa-n-108" value="" style="shape=tableRow;horizontal=0;startSize=0;swimlaneHead=0;swimlaneBody=0;strokeColor=inherit;top=0;left=0;bottom=0;right=0;collapsible=0;dropTarget=0;fillColor=none;points=[[0,0.5],[1,0.5]];portConstraint=eastwest;fontSize=12;" parent="BfqyUTglAI3pxGKkoa-n-103" vertex="1">
          <mxGeometry y="90" width="180" height="30" as="geometry" />
        </mxCell>
        <mxCell id="BfqyUTglAI3pxGKkoa-n-109" value="Container" style="shape=partialRectangle;html=1;whiteSpace=wrap;connectable=0;strokeColor=inherit;overflow=hidden;fillColor=#448dd5;top=0;left=0;bottom=0;right=0;pointerEvents=1;fontSize=12;align=left;fontColor=#FFFFFF;gradientColor=none;spacingLeft=10;spacingRight=4;" parent="BfqyUTglAI3pxGKkoa-n-108" vertex="1">
          <mxGeometry width="180" height="30" as="geometry">
            <mxRectangle width="180" height="30" as="alternateBounds" />
          </mxGeometry>
        </mxCell>
        <mxCell id="BfqyUTglAI3pxGKkoa-n-110" value="" style="shape=tableRow;horizontal=0;startSize=0;swimlaneHead=0;swimlaneBody=0;strokeColor=inherit;top=0;left=0;bottom=0;right=0;collapsible=0;dropTarget=0;fillColor=none;points=[[0,0.5],[1,0.5]];portConstraint=eastwest;fontSize=12;" parent="BfqyUTglAI3pxGKkoa-n-103" vertex="1">
          <mxGeometry y="120" width="180" height="30" as="geometry" />
        </mxCell>
        <mxCell id="BfqyUTglAI3pxGKkoa-n-111" value="Component" style="shape=partialRectangle;html=1;whiteSpace=wrap;connectable=0;strokeColor=inherit;overflow=hidden;fillColor=#7dbef2;top=0;left=0;bottom=0;right=0;pointerEvents=1;fontSize=12;align=left;fontColor=#FFFFFF;gradientColor=none;spacingLeft=10;spacingRight=4;" parent="BfqyUTglAI3pxGKkoa-n-110" vertex="1">
          <mxGeometry width="180" height="30" as="geometry">
            <mxRectangle width="180" height="30" as="alternateBounds" />
          </mxGeometry>
        </mxCell>
        <mxCell id="BfqyUTglAI3pxGKkoa-n-112" value="" style="shape=tableRow;horizontal=0;startSize=0;swimlaneHead=0;swimlaneBody=0;strokeColor=inherit;top=0;left=0;bottom=0;right=0;collapsible=0;dropTarget=0;fillColor=none;points=[[0,0.5],[1,0.5]];portConstraint=eastwest;fontSize=12;" parent="BfqyUTglAI3pxGKkoa-n-103" vertex="1">
          <mxGeometry y="150" width="180" height="30" as="geometry" />
        </mxCell>
        <mxCell id="BfqyUTglAI3pxGKkoa-n-113" value="External Person" style="shape=partialRectangle;html=1;whiteSpace=wrap;connectable=0;strokeColor=inherit;overflow=hidden;fillColor=#686868;top=0;left=0;bottom=0;right=0;pointerEvents=1;fontSize=12;align=left;fontColor=#FFFFFF;gradientColor=none;spacingLeft=10;spacingRight=4;" parent="BfqyUTglAI3pxGKkoa-n-112" vertex="1">
          <mxGeometry width="180" height="30" as="geometry">
            <mxRectangle width="180" height="30" as="alternateBounds" />
          </mxGeometry>
        </mxCell>
        <mxCell id="BfqyUTglAI3pxGKkoa-n-114" value="" style="shape=tableRow;horizontal=0;startSize=0;swimlaneHead=0;swimlaneBody=0;strokeColor=inherit;top=0;left=0;bottom=0;right=0;collapsible=0;dropTarget=0;fillColor=none;points=[[0,0.5],[1,0.5]];portConstraint=eastwest;fontSize=12;" parent="BfqyUTglAI3pxGKkoa-n-103" vertex="1">
          <mxGeometry y="180" width="180" height="30" as="geometry" />
        </mxCell>
        <mxCell id="BfqyUTglAI3pxGKkoa-n-115" value="External Software System" style="shape=partialRectangle;html=1;whiteSpace=wrap;connectable=0;strokeColor=inherit;overflow=hidden;fillColor=#999999;top=0;left=0;bottom=0;right=0;pointerEvents=1;fontSize=12;align=left;fontColor=#FFFFFF;gradientColor=none;spacingLeft=10;spacingRight=4;" parent="BfqyUTglAI3pxGKkoa-n-114" vertex="1">
          <mxGeometry width="180" height="30" as="geometry">
            <mxRectangle width="180" height="30" as="alternateBounds" />
          </mxGeometry>
        </mxCell>
        <mxCell id="BfqyUTglAI3pxGKkoa-n-132" style="rounded=0;orthogonalLoop=1;jettySize=auto;html=1;entryX=0;entryY=0.5;entryDx=0;entryDy=0;jumpStyle=arc;edgeStyle=orthogonalEdgeStyle;strokeColor=#7A7A7A;anchorPointDirection=1;flowAnimation=0;ignoreEdge=0;orthogonal=0;enumerate=0;comic=0;exitX=1;exitY=0.75;exitDx=0;exitDy=0;startArrow=classic;startFill=1;" parent="BfqyUTglAI3pxGKkoa-n-1" source="BfqyUTglAI3pxGKkoa-n-93" target="BfqyUTglAI3pxGKkoa-n-11" edge="1">
          <mxGeometry relative="1" as="geometry">
            <mxPoint x="-5112" y="695" as="sourcePoint" />
            <mxPoint x="-5021" y="695" as="targetPoint" />
          </mxGeometry>
        </mxCell>
      </root>
    </mxGraphModel>
  </diagram>
  <diagram id="hVOoz4EPfWQ7Hr3MbPvB" name="BFS">
    <mxGraphModel dx="2074" dy="1177" grid="1" gridSize="10" guides="1" tooltips="1" connect="1" arrows="1" fold="1" page="1" pageScale="1" pageWidth="6000" pageHeight="2000" math="0" shadow="0">
      <root>
        <mxCell id="0" />
        <mxCell id="1" parent="0" />
      </root>
    </mxGraphModel>
  </diagram>
</mxfile>
